<?xml version="1.0" encoding="UTF-8" standalone="no"?>
<!-- Created with Inkscape (http://www.inkscape.org/) -->

<svg
   xmlns:dc="http://purl.org/dc/elements/1.1/"
   xmlns:cc="http://creativecommons.org/ns#"
   xmlns:rdf="http://www.w3.org/1999/02/22-rdf-syntax-ns#"
   xmlns:svg="http://www.w3.org/2000/svg"
   xmlns="http://www.w3.org/2000/svg"
   xmlns:xlink="http://www.w3.org/1999/xlink"
   xmlns:sodipodi="http://sodipodi.sourceforge.net/DTD/sodipodi-0.dtd"
   xmlns:inkscape="http://www.inkscape.org/namespaces/inkscape"
   id="svg2"
   version="1.1"
   inkscape:version="0.47 r22583"
   width="952"
   height="663"
   sodipodi:docname="header.svg">
  <metadata
     id="metadata8">
    <rdf:RDF>
      <cc:Work
         rdf:about="">
        <dc:format>image/svg+xml</dc:format>
        <dc:type
           rdf:resource="http://purl.org/dc/dcmitype/StillImage" />
        <dc:title></dc:title>
      </cc:Work>
    </rdf:RDF>
  </metadata>
  <defs
     id="defs6">
    <linearGradient
       id="linearGradient3898">
      <stop
         style="stop-color:#3197ce;stop-opacity:1;"
         offset="0"
         id="stop3900" />
      <stop
         style="stop-color:#316fce;stop-opacity:0;"
         offset="1"
         id="stop3902" />
    </linearGradient>
    <linearGradient
       inkscape:collect="always"
       id="linearGradient3707">
      <stop
         style="stop-color:#3c85ca;stop-opacity:1;"
         offset="0"
         id="stop3709" />
      <stop
         style="stop-color:#3c85ca;stop-opacity:0;"
         offset="1"
         id="stop3711" />
    </linearGradient>
    <inkscape:perspective
       sodipodi:type="inkscape:persp3d"
       inkscape:vp_x="0 : 0.5 : 1"
       inkscape:vp_y="0 : 1000 : 0"
       inkscape:vp_z="1 : 0.5 : 1"
       inkscape:persp3d-origin="0.5 : 0.33333333 : 1"
       id="perspective10" />
    <linearGradient
       inkscape:collect="always"
       xlink:href="#linearGradient3707"
       id="linearGradient3713"
       x1="34.91206"
       y1="-305.98431"
       x2="961.32418"
       y2="-307.27461"
       gradientUnits="userSpaceOnUse"
       gradientTransform="matrix(0.99266022,0.1209367,-0.1209367,0.99266022,-5.1615673,332.31864)" />
    <linearGradient
       inkscape:collect="always"
       xlink:href="#linearGradient3707"
       id="linearGradient3717"
       gradientUnits="userSpaceOnUse"
       x1="39.86712"
       y1="-307.27461"
       x2="961.32418"
       y2="-307.27461"
       gradientTransform="matrix(1.1685429,0,0,1,-20.837967,313.6356)" />
    <linearGradient
       inkscape:collect="always"
       xlink:href="#linearGradient3707"
       id="linearGradient3721"
       gradientUnits="userSpaceOnUse"
       gradientTransform="matrix(0.96621195,0.652129,-0.83114125,0.75810801,-333.56695,196.28946)"
       x1="39.883423"
       y1="-305.25769"
       x2="744.35876"
       y2="-350.15341" />
    <linearGradient
       inkscape:collect="always"
       xlink:href="#linearGradient3707"
       id="linearGradient3725"
       gradientUnits="userSpaceOnUse"
       gradientTransform="matrix(0.84813172,0.52978541,-0.52978541,0.84813172,-195.99332,270.7496)"
       x1="82.076126"
       y1="-336.81223"
       x2="679.3949"
       y2="-368.26981" />
    <linearGradient
       inkscape:collect="always"
       xlink:href="#linearGradient3707"
       id="linearGradient3729"
       gradientUnits="userSpaceOnUse"
       gradientTransform="matrix(0.39722243,0.53073843,-0.5536723,0.56667601,-202.95877,202.22469)"
       x1="93.195145"
       y1="-393.72714"
       x2="936.91333"
       y2="-368.57785" />
    <linearGradient
       inkscape:collect="always"
       xlink:href="#linearGradient3707"
       id="linearGradient3742"
       gradientUnits="userSpaceOnUse"
       gradientTransform="matrix(1.1922093,0.3535126,-0.45055335,0.93542976,-250.93869,286.79808)"
       x1="39.883423"
       y1="-305.25769"
       x2="822.05121"
       y2="-375.08826" />
    <linearGradient
       inkscape:collect="always"
       xlink:href="#linearGradient3707"
       id="linearGradient3744"
       gradientUnits="userSpaceOnUse"
       gradientTransform="matrix(1.2744086,0.01225736,-0.01562206,0.99992487,-121.50366,349.89324)"
       x1="39.883423"
       y1="-305.25769"
       x2="837.80963"
       y2="-347.12338" />
    <linearGradient
       inkscape:collect="always"
       xlink:href="#linearGradient3707"
       id="linearGradient3746"
       gradientUnits="userSpaceOnUse"
       gradientTransform="matrix(1.2028954,-0.3304763,0.42119348,0.94381429,8.8581707,378.54177)"
       x1="39.883423"
       y1="-305.25769"
       x2="713.05981"
       y2="-339.80466" />
    <linearGradient
       inkscape:collect="always"
       xlink:href="#linearGradient3707"
       id="linearGradient3752"
       gradientUnits="userSpaceOnUse"
       gradientTransform="matrix(0.68490099,0.94326476,-1.0403055,0.42812145,-354.89643,60.252251)"
       x1="39.883423"
       y1="-305.25769"
       x2="744.35876"
       y2="-350.15341" />
    <linearGradient
       inkscape:collect="always"
       xlink:href="#linearGradient3707"
       id="linearGradient3756"
       gradientUnits="userSpaceOnUse"
       gradientTransform="matrix(0.32098086,1.1206289,-1.1239936,0.04649713,-341.1726,-100.88215)"
       x1="39.883423"
       y1="-305.25769"
       x2="744.35876"
       y2="-350.15341" />
    <linearGradient
       inkscape:collect="always"
       xlink:href="#linearGradient3707"
       id="linearGradient3760"
       gradientUnits="userSpaceOnUse"
       gradientTransform="matrix(-0.08165431,1.1628286,-1.0721114,-0.34073544,-268.39871,-246.08855)"
       x1="39.883423"
       y1="-305.25769"
       x2="744.35876"
       y2="-350.15341" />
    <linearGradient
       inkscape:collect="always"
       xlink:href="#linearGradient3707"
       id="linearGradient3764"
       gradientUnits="userSpaceOnUse"
       gradientTransform="matrix(-0.47444076,1.064774,-0.89091679,-0.68687027,-151.85784,-336.51545)"
       x1="39.883423"
       y1="-305.25769"
       x2="744.35876"
       y2="-350.15341" />
    <linearGradient
       inkscape:collect="always"
       xlink:href="#linearGradient3707"
       id="linearGradient3780"
       gradientUnits="userSpaceOnUse"
       gradientTransform="matrix(1.2028954,-0.3304763,0.42119348,0.94381429,8.8581707,378.54177)"
       x1="39.883423"
       y1="-305.25769"
       x2="713.05981"
       y2="-339.80466" />
    <linearGradient
       inkscape:collect="always"
       xlink:href="#linearGradient3707"
       id="linearGradient3782"
       gradientUnits="userSpaceOnUse"
       gradientTransform="matrix(0.68490099,0.94326476,-1.0403055,0.42812145,-354.89643,60.252251)"
       x1="39.883423"
       y1="-305.25769"
       x2="744.35876"
       y2="-350.15341" />
    <linearGradient
       inkscape:collect="always"
       xlink:href="#linearGradient3707"
       id="linearGradient3784"
       gradientUnits="userSpaceOnUse"
       gradientTransform="matrix(1.2744086,0.01225736,-0.01562206,0.99992487,-121.50366,349.89324)"
       x1="39.883423"
       y1="-305.25769"
       x2="837.80963"
       y2="-347.12338" />
    <linearGradient
       inkscape:collect="always"
       xlink:href="#linearGradient3707"
       id="linearGradient3786"
       gradientUnits="userSpaceOnUse"
       gradientTransform="matrix(0.32098086,1.1206289,-1.1239936,0.04649713,-341.1726,-100.88215)"
       x1="39.883423"
       y1="-305.25769"
       x2="744.35876"
       y2="-350.15341" />
    <linearGradient
       inkscape:collect="always"
       xlink:href="#linearGradient3707"
       id="linearGradient3788"
       gradientUnits="userSpaceOnUse"
       gradientTransform="matrix(0.96621195,0.652129,-0.83114125,0.75810801,-333.56695,196.28946)"
       x1="39.883423"
       y1="-305.25769"
       x2="744.35876"
       y2="-350.15341" />
    <linearGradient
       inkscape:collect="always"
       xlink:href="#linearGradient3707"
       id="linearGradient3790"
       gradientUnits="userSpaceOnUse"
       gradientTransform="matrix(-0.08165431,1.1628286,-1.0721114,-0.34073544,-268.39871,-246.08855)"
       x1="39.883423"
       y1="-305.25769"
       x2="744.35876"
       y2="-350.15341" />
    <linearGradient
       inkscape:collect="always"
       xlink:href="#linearGradient3707"
       id="linearGradient3792"
       gradientUnits="userSpaceOnUse"
       gradientTransform="matrix(1.1922093,0.3535126,-0.45055335,0.93542976,-250.93869,286.79808)"
       x1="39.883423"
       y1="-305.25769"
       x2="822.05121"
       y2="-375.08826" />
    <linearGradient
       inkscape:collect="always"
       xlink:href="#linearGradient3707"
       id="linearGradient3794"
       gradientUnits="userSpaceOnUse"
       gradientTransform="matrix(-0.47444076,1.064774,-0.89091679,-0.68687027,-151.85784,-336.51545)"
       x1="39.883423"
       y1="-305.25769"
       x2="744.35876"
       y2="-350.15341" />
    <linearGradient
       inkscape:collect="always"
       xlink:href="#linearGradient3707"
       id="linearGradient3797"
       gradientUnits="userSpaceOnUse"
       gradientTransform="matrix(-0.47444076,1.064774,-0.89091679,-0.68687027,-151.85784,-336.51545)"
       x1="39.883423"
       y1="-305.25769"
       x2="744.35876"
       y2="-350.15341" />
    <linearGradient
       inkscape:collect="always"
       xlink:href="#linearGradient3707"
       id="linearGradient3800"
       gradientUnits="userSpaceOnUse"
       gradientTransform="matrix(1.1922093,0.3535126,-0.45055335,0.93542976,-250.93869,286.79808)"
       x1="39.883423"
       y1="-305.25769"
       x2="822.05121"
       y2="-375.08826" />
    <linearGradient
       inkscape:collect="always"
       xlink:href="#linearGradient3707"
       id="linearGradient3803"
       gradientUnits="userSpaceOnUse"
       gradientTransform="matrix(-0.08165431,1.1628286,-1.0721114,-0.34073544,-268.39871,-246.08855)"
       x1="39.883423"
       y1="-305.25769"
       x2="744.35876"
       y2="-350.15341" />
    <linearGradient
       inkscape:collect="always"
       xlink:href="#linearGradient3707"
       id="linearGradient3806"
       gradientUnits="userSpaceOnUse"
       gradientTransform="matrix(0.96621195,0.652129,-0.83114125,0.75810801,-333.56695,196.28946)"
       x1="39.883423"
       y1="-305.25769"
       x2="744.35876"
       y2="-350.15341" />
    <linearGradient
       inkscape:collect="always"
       xlink:href="#linearGradient3707"
       id="linearGradient3809"
       gradientUnits="userSpaceOnUse"
       gradientTransform="matrix(0.32098086,1.1206289,-1.1239936,0.04649713,-341.1726,-100.88215)"
       x1="39.883423"
       y1="-305.25769"
       x2="744.35876"
       y2="-350.15341" />
    <linearGradient
       inkscape:collect="always"
       xlink:href="#linearGradient3707"
       id="linearGradient3812"
       gradientUnits="userSpaceOnUse"
       gradientTransform="matrix(1.2744086,0.01225736,-0.01562206,0.99992487,-121.50366,349.89324)"
       x1="39.883423"
       y1="-305.25769"
       x2="837.80963"
       y2="-347.12338" />
    <linearGradient
       inkscape:collect="always"
       xlink:href="#linearGradient3707"
       id="linearGradient3815"
       gradientUnits="userSpaceOnUse"
       gradientTransform="matrix(0.68490099,0.94326476,-1.0403055,0.42812145,-354.89643,60.252251)"
       x1="39.883423"
       y1="-305.25769"
       x2="744.35876"
       y2="-350.15341" />
    <linearGradient
       inkscape:collect="always"
       xlink:href="#linearGradient3707"
       id="linearGradient3818"
       gradientUnits="userSpaceOnUse"
       gradientTransform="matrix(1.2028954,-0.3304763,0.42119348,0.94381429,8.8581707,378.54177)"
       x1="39.883423"
       y1="-305.25769"
       x2="713.05981"
       y2="-339.80466" />
    <linearGradient
       inkscape:collect="always"
       xlink:href="#linearGradient3898"
       id="linearGradient3904"
       x1="77.545967"
       y1="58.131294"
       x2="1223.9323"
       y2="177.34534"
       gradientUnits="userSpaceOnUse" />
    <filter
       inkscape:collect="always"
       id="filter3954">
      <feGaussianBlur
         inkscape:collect="always"
         stdDeviation="0.56392188"
         id="feGaussianBlur3956" />
    </filter>
    <filter
       inkscape:collect="always"
       id="filter3958">
      <feGaussianBlur
         inkscape:collect="always"
         stdDeviation="0.84588281"
         id="feGaussianBlur3960" />
    </filter>
    <filter
       inkscape:collect="always"
       id="filter3980">
      <feGaussianBlur
         inkscape:collect="always"
         stdDeviation="5.5186852"
         id="feGaussianBlur3982" />
    </filter>
    <filter
       inkscape:collect="always"
       id="filter4024"
       x="-0.15813997"
       width="1.3162799"
       y="-0.12046033"
       height="1.2409207">
      <feGaussianBlur
         inkscape:collect="always"
         stdDeviation="4.5891463"
         id="feGaussianBlur4026" />
    </filter>
  </defs>
  <sodipodi:namedview
     pagecolor="#ffffff"
     bordercolor="#666666"
     borderopacity="1"
     objecttolerance="10"
     gridtolerance="10"
     guidetolerance="10"
     inkscape:pageopacity="0"
     inkscape:pageshadow="2"
     inkscape:window-width="1622"
     inkscape:window-height="998"
     id="namedview4"
     showgrid="false"
     showguides="true"
     inkscape:guide-bbox="true"
     inkscape:zoom="0.99159664"
     inkscape:cx="497.31858"
     inkscape:cy="653.08316"
     inkscape:window-x="58"
     inkscape:window-y="30"
     inkscape:window-maximized="1"
     inkscape:current-layer="svg2">
    <sodipodi:guide
       orientation="0,1"
       position="155.45563,1043.9772"
       id="guide3667" />
    <sodipodi:guide
       orientation="1,0"
       position="961.25774,941.29096"
       id="guide3669" />
    <sodipodi:guide
       orientation="0,1"
       position="312.33745,946.99575"
       id="guide3671" />
  </sodipodi:namedview>
  <rect
     y="2.2184992"
     x="0.5445053"
     height="148.911"
     width="978.91095"
     id="rect2854"
     style="fill:#3a5fc8;fill-opacity:1;fill-rule:nonzero;stroke:#909090;stroke-width:1.08901059999999994;stroke-linecap:butt;stroke-linejoin:miter;stroke-miterlimit:4;stroke-opacity:1;stroke-dasharray:none"
     inkscape:export-filename="/home/oli/devel/mating-manager/public/images/svg/header.png"
     inkscape:export-xdpi="90.519997"
     inkscape:export-ydpi="90.519997" />
  <path
     style="fill:url(#linearGradient3904);fill-opacity:1;fill-rule:nonzero;stroke:none;stroke-width:1.08901059999999994;stroke-linecap:butt;stroke-linejoin:miter;stroke-miterlimit:4;stroke-opacity:1;stroke-dasharray:none;filter:url(#filter3958)"
     d="M 7.15625 2.21875 L 28.9375 31.53125 L 0.53125 17.75 L 0.53125 26.9375 L 10.46875 33.5 L 0.53125 31.875 L 0.53125 41.28125 L 5.375 42.65625 L 0.53125 43.21875 L 0.53125 51.6875 L 3.90625 51.6875 L 0.53125 53.125 L 0.53125 63.5625 L 33.53125 54.15625 L 0.53125 130.46875 L 0.53125 151.125 L 28 151.125 L 35.4375 124.96875 L 33.875 151.125 L 67.40625 151.125 L 65.5 124.625 L 73.40625 151.125 L 107.40625 151.125 L 91.625 115.875 L 117.8125 151.125 L 160 151.125 L 108.90625 98.40625 L 188.90625 151.125 L 275.28125 151.125 L 118.5 75 L 384.65625 151.125 L 731.25 151.125 L 122.03125 51.71875 L 979.46875 52.0625 L 979.46875 2.21875 L 360.96875 2.21875 L 119.28125 29.71875 L 215.71875 2.21875 L 121.1875 2.21875 L 63.4375 26.5625 L 70.375 2.21875 L 42.6875 2.21875 L 42.46875 6.0625 L 40.75 2.21875 L 28.96875 2.21875 L 34.875 22 L 15.71875 2.21875 L 7.15625 2.21875 z "
     id="rect3778"
     inkscape:export-filename="/home/oli/devel/mating-manager/public/images/svg/header.png"
     inkscape:export-xdpi="90.519997"
     inkscape:export-ydpi="90.519997" />
  <path
     id="path3962"
     d="m 0.53125,2.03125 0,116.80542 c 17.981969,16.19881 43.2462,25.63405 70.57499,24.11715 50.70607,-2.81446 89.28941,-42.25674 86.17659,-88.102858 l 0,-0.07001 C 155.86154,34.159561 146.22922,15.772637 131.46083,2.03125 l -130.92958,0 z"
     style="fill:#000000;fill-opacity:1;fill-rule:nonzero;stroke:none;opacity:0.36887608000000000;filter:url(#filter3980)"
     inkscape:export-filename="/home/oli/devel/mating-manager/public/images/svg/header.png"
     inkscape:export-xdpi="90.519997"
     inkscape:export-ydpi="90.519997" />
  <path
     style="fill:#3197ce;fill-opacity:1;fill-rule:nonzero;stroke:none;"
     d="m 0.53125,2.03125 0,116.80542 c 17.981969,16.19881 43.2462,25.63405 70.57499,24.11715 50.70607,-2.81446 89.28941,-42.25674 86.17659,-88.102858 l 0,-0.07001 C 155.86154,34.159561 146.22922,15.772637 131.46083,2.03125 l -130.92958,0 z"
     id="path2837"
     inkscape:export-filename="/home/oli/devel/mating-manager/public/images/svg/header.png"
     inkscape:export-xdpi="90.519997"
     inkscape:export-ydpi="90.519997" />
  <g
     transform="translate(22.186441,7.059322)"
     id="g3984"
     style="fill:#000000;fill-opacity:1;opacity:0.45821326000000001;filter:url(#filter4024)"
     inkscape:export-filename="/home/oli/devel/mating-manager/public/images/svg/header.png"
     inkscape:export-xdpi="90.519997"
     inkscape:export-ydpi="90.519997">
    <path
       id="path3986"
       d="M 52.249419,100.6387 C 50.523054,99.203195 49.87059,98.465475 49.567096,97.605873 49.410726,97.162982 49.080932,96.495868 48.834219,96.1234 48.587505,95.750931 48.207332,94.972436 47.989387,94.393414 47.391111,92.803939 47.199883,92.504815 46.453907,91.991569 45.963609,91.654236 45.656848,91.276208 45.376512,90.663872 45.01631,89.877088 44.905619,89.772359 44.009091,89.370101 42.483449,74.934134 35.871089,75.867817 30.789386,85.002406 c -0.567874,0.156068 -0.954995,0.540262 -1.369575,1.359223 -0.335001,0.661761 -0.409202,1.02088 -0.409202,1.980477 0,1.389749 -0.1043,1.479454 -1.290208,1.109678 -0.44089,-0.137473 -1.066306,-0.2902 -1.389813,-0.339392 -0.875649,-0.133151 -1.019029,-0.571041 -0.59653,-1.821843 0.182874,-0.541394 0.332675,-1.36294 0.332889,-1.825657 1.55e-4,-0.462715 0.179531,-1.503714 0.39848,-2.313328 0.571982,-2.115033 0.542097,-3.286085 -0.08897,-3.486379 C 26.010071,79.548898 25.8459,79.07031 26.044866,78.698538 30.284681,66.008327 42.75725,45.11891 21.629356,58.19399 c -0.159793,0.79896 -0.640485,0.916731 -1.635772,0.40077 -1.029967,-0.533942 -1.209468,-0.67932 -1.374406,-1.113141 -0.33312,-0.876171 0.978289,-3.146778 2.402109,-4.159076 0.362042,-0.257402 1.087514,-0.897261 1.612161,-1.421908 0.908292,-0.908291 1.16268,-1.451179 0.788393,-1.682501 18.046106,-15.947546 17.49679,-15.83653 8.766167,-26.960265 -0.320468,-0.252663 -0.939864,-0.816955 -1.376436,-1.253979 -0.436574,-0.437026 -1.401862,-1.128894 -2.145085,-1.537485 -0.743225,-0.408591 -1.565037,-0.963397 -1.826254,-1.232903 -0.810167,-0.835882 -0.767037,-2.198464 0.08183,-2.585235 0.333028,-0.151738 0.512076,-0.124849 1.113113,0.167157 1.417333,0.623777 2.908573,0.597536 4.387651,0.274815 24.276705,16.81978 0.983171,-5.093678 12.082811,-6.358686 1.949781,0.0018 4.208642,0.593572 5.278605,1.382966 0.947068,0.698724 1.519368,0.754184 3.004477,0.29115 1.191506,-0.371492 1.385478,-0.392344 2.086134,-0.22426 0.424867,0.101925 0.862955,0.129222 0.973527,0.06066 0.110574,-0.06856 0.898319,-0.129247 1.750545,-0.134862 l 1.549501,-0.01021 1.740173,-0.874392 c 1.956932,-0.983307 2.817142,-1.209632 4.701367,-1.2369483 1.415155,-0.020517 2.091474,0.2028933 2.536164,0.8377753 0.322122,0.459895 0.315605,0.491401 -0.230245,1.113089 -0.301767,0.343693 -0.762947,0.632506 -1.278339,0.800556 -1.280099,0.417392 -3.819597,1.726301 -3.935977,2.028683 -0.07215,0.187465 0.21168,0.570054 1.298694,1.750573 0.388552,6.438647 0.937081,13.530563 6.237492,4.881655 0.06682,0.0413 0.512947,-0.06249 0.991384,-0.230648 0.478435,-0.168157 1.133104,-0.306808 1.454817,-0.308112 0.762605,-0.0031 0.85231,-0.07272 1.394459,-1.082279 0.570562,-1.062468 1.559832,-1.859402 2.308162,-1.859402 0.422405,0 0.695494,-0.148329 1.280432,-0.69547 0.408932,-0.382509 1.026684,-0.795378 1.372781,-0.917488 0.346098,-0.122112 0.909418,-0.407414 1.251822,-0.634007 0.347397,-0.229896 0.779827,-0.389385 0.978393,-0.360849 0.452981,0.0651 0.832826,0.727392 0.701997,1.223999 -0.05457,0.207152 -1.56451,1.875782 -3.355417,3.708067 -2.595743,2.65572 -3.306086,3.472856 -3.502186,4.028704 -0.225483,0.639134 -1.024594,1.998072 -1.190837,2.896046 -14.557689,3.22912 0.827316,14.234322 7.015361,21.533322 0,0.38981 0.289477,0.672406 0.689528,0.673136 0.422718,7.75e-4 1.303468,0.549411 1.701537,1.05993 0.49972,0.640882 1.731154,1.958169 3.380828,3.616531 1.53795,1.546049 1.791054,2.02515 1.289685,2.441249 -0.376955,0.312845 -1.467712,0.239398 -1.925251,-0.129639 -0.225708,-0.182034 -0.933322,-0.684084 -1.572491,-1.115663 l -1.162126,-0.784693 -1.249029,0.06069 c -0.83403,0.04053 -2.254183,-1.303024 -2.500852,-1.130249 -2.14028,0.970068 -6.062336,-4.090348 -6.431991,-0.721236 -0.0054,0.454266 1.886946,7.948289 1.817147,7.948289 -0.265703,0 1.903978,6.953983 1.958598,8.035628 0.04725,0.935614 0.13282,1.235972 0.505244,1.773379 0.65185,0.940622 1.068948,3.228862 0.858731,4.711086 -0.08458,0.596383 -0.194133,1.245085 -0.243444,1.44156 -0.04931,0.196476 -0.01367,0.587545 0.07923,0.869044 0.09289,0.2815 0.198246,0.860456 0.234131,1.286569 0.03588,0.426112 0.387138,2.028833 0.780563,3.561602 0.645308,2.514095 0.699662,2.859853 0.555354,3.532742 -0.08798,0.41024 -0.159966,1.16541 -0.159966,1.678152 0,1.573161 -0.366465,1.828527 -1.764224,1.229376 -0.832198,-0.356721 -1.012263,-0.800384 -0.739202,-1.821326 0.245458,-0.917743 0.22795,-1.260053 -0.135231,-2.643927 -0.461609,-1.758921 -0.566207,-1.958861 -1.473846,-2.817269 -7.801555,-5.229571 -5.248967,-4.343183 -9.55208,6.836227 -0.486351,0.235592 -0.969486,0.587566 -1.073632,0.782165 -0.104147,0.1946 -0.168205,0.353818 -0.142355,0.353818 0.103392,0 -0.201647,1.113489 -0.424484,1.549501 -0.347057,0.679068 -0.673071,0.881961 -0.976903,0.607974 -0.134545,-0.121329 -0.308864,-0.218279 -0.387376,-0.215443 -0.395699,0.01429 -0.881764,0.710133 -1.277798,1.829279 -0.242232,0.684519 -0.684656,1.615147 -0.983166,2.068063 -0.29851,0.452914 -0.939565,1.429807 -1.424565,2.170868 -0.485002,0.741063 -1.151746,1.577794 -1.481655,1.859402 -1.068487,0.912054 -3.053464,2.015694 -3.770808,2.096544 -0.627115,0.0707 -0.732549,0.023 -1.667605,-0.75453 z M 43.966573,75.044397 c 0.610988,-0.610989 0.814508,-1.44505 0.572378,-2.345721 -0.182442,-0.678646 -0.02133,-1.063407 0.307564,-0.734513 0.37589,0.37589 0.864953,0.197193 1.505455,-0.550073 0.769653,-0.897947 0.822004,-1.40969 0.182836,-1.787256 -0.659701,-0.389696 -1.027798,-0.329788 -1.698878,0.276492 -0.531101,0.479819 -0.697474,0.542326 -1.443483,0.542326 -0.999173,0 -1.327047,0.272696 -2.206952,1.83555 -0.618604,1.098742 -0.726539,2.032275 -0.304618,2.634653 0.330129,0.471324 0.743203,0.621496 1.742105,0.633329 0.738621,0.0088 0.885078,-0.04627 1.343593,-0.504787 z m 21.371061,-2.463921 c 0.491313,-0.701449 0.27479,-1.000383 -0.765965,-1.057499 -0.740468,-0.04064 -0.852226,-0.0076 -0.852226,0.25167 0,0.312241 0.831563,1.150207 1.14142,1.150207 0.129557,0 0.344104,-0.15497 0.476771,-0.344378 z m -2.420903,-2.573075 c 0.02723,-0.185075 -0.01653,-0.3365 -0.09724,-0.3365 -0.237676,0 -0.530299,0.436682 -0.416265,0.621192 0.159845,0.258635 0.457869,0.09341 0.513504,-0.284692 z M 43.005502,69.392045 c 0.415821,-0.459477 0.725522,-1.559691 0.722999,-2.568466 -0.0029,-1.163794 -0.138697,-1.437591 -0.592511,-1.194717 -0.587474,0.314406 -1.181006,3.019602 -0.813271,3.70672 0.218422,0.408127 0.35436,0.419367 0.682783,0.05646 z m 5.218926,-1.618492 c 0,-0.08644 -0.102772,-0.06966 -0.232425,0.03795 -0.127834,0.106093 -0.232426,0.262623 -0.232426,0.347846 0,0.08644 0.102773,0.06966 0.232426,-0.03795 0.127833,-0.106093 0.232425,-0.262623 0.232425,-0.347846 z m 1.129603,-1.046919 c 0.0446,-0.170563 0.01787,-0.271039 -0.0594,-0.22328 -0.07728,0.04776 -0.140499,0.18731 -0.140499,0.310114 0,0.320708 0.105288,0.274973 0.199902,-0.08683 z m 9.407007,-2.394665 c 0,-0.633038 -0.440912,-1.054595 -1.032211,-0.986902 -0.385904,0.04418 -0.445728,0.121875 -0.488051,0.633838 -0.03999,0.483756 0.03618,0.667901 0.445677,1.077396 l 0.493912,0.493913 0.290337,-0.35855 c 0.159685,-0.197202 0.290336,-0.584065 0.290336,-0.859695 z m -1.175959,-2.912164 c 0.531971,-0.8216 1.140077,-4.306432 0.749846,-4.297082 -0.229131,0.0055 -1.122818,1.550778 -1.272757,2.200745 -0.175412,0.760391 -0.210317,2.188588 -0.05723,2.341674 0.182265,0.182265 0.348907,0.111794 0.580142,-0.245337 z m 0.942234,-5.998399 c 0.05544,-0.252414 0.03453,-0.577336 -0.04645,-0.722054 -0.135831,-0.242714 -0.159602,-0.240041 -0.306515,0.03447 -0.170749,0.319045 -0.07866,1.146516 0.127592,1.146516 0.06852,0 0.169934,-0.206519 0.225374,-0.458931 z"
       style="fill:#000000;fill-opacity:1"
       sodipodi:nodetypes="csssssccssssssssccssssccsssscccsssscccsssssccsssssssssssccssssscccccsssssssssssssccssssssssssccsssssssssccsssccssccsssccsssccssccsscccccsssccsssc" />
    <path
       id="path3988"
       d="m 53.056285,99.935597 c -0.282657,-0.13929 -0.8616,-0.565849 -1.286542,-0.947906 -0.971663,-0.873609 -2.106158,-3.16673 -3.255433,-6.58011 -0.437201,-1.298498 -1.06243,-2.991423 -1.389398,-3.762054 -0.326968,-0.77063 -0.699271,-1.851407 -0.82734,-2.401727 -0.338077,-1.452719 -0.914059,-3.071099 -1.464998,-4.116313 -0.26468,-0.502134 -0.481385,-0.987085 -0.481568,-1.077669 -1.55e-4,-0.09058 -0.209515,-0.365107 -0.465182,-0.610052 -0.255668,-0.244945 -0.464851,-0.534388 -0.464851,-0.643205 0,-0.108816 -0.250082,-0.367785 -0.555739,-0.575483 -0.825682,-0.561067 -1.016769,-0.907118 -0.900927,-1.631554 0.105347,-0.658803 0.05783,-0.631045 1.474131,-0.861149 0.698575,-0.113496 0.939255,-0.378408 1.675775,-1.844497 0.587709,-1.169868 0.856807,-1.549592 2.200447,-3.105032 0.401837,-0.465182 0.831853,-1.175429 0.977932,-1.615232 0.163871,-0.49337 0.573636,-1.135654 1.103079,-1.729011 0.972697,-1.090121 1.256246,-1.607721 1.85482,-3.385842 L 51.68493,63.75822 51.43912,60.167831 c -0.239367,-3.496256 -0.349724,-4.13894 -1.035267,-6.028998 -0.177369,-0.489011 -0.415934,-1.604652 -0.530148,-2.479203 -0.117589,-0.900403 -0.343041,-1.858928 -0.519784,-2.209894 -0.171669,-0.340891 -0.358562,-0.98273 -0.415319,-1.42631 -0.202846,-1.58532 -0.866486,-2.834819 -1.505639,-2.834819 -0.490269,0 -1.786106,0.930495 -2.115546,1.519101 -0.38797,0.693179 -0.811793,2.273073 -0.811793,3.026132 0,0.418165 0.147944,0.720208 0.619801,1.265397 0.420085,0.485371 0.6198,0.862874 0.6198,1.17155 0,0.477881 -0.465806,1.075227 -0.838452,1.075227 -0.56366,0 -1.322372,1.482004 -1.565994,3.058879 -0.08072,0.522463 -0.245712,0.78407 -0.805002,1.276376 -0.494368,0.43516 -0.801286,0.596319 -1.032527,0.54217 -0.814144,-0.190646 -1.033442,0.442922 -1.106256,3.196061 -0.03454,1.305827 -0.146352,2.560903 -0.254896,2.861077 -0.149789,0.414233 -0.153453,0.725071 -0.01626,1.379158 0.15403,0.734345 0.137706,0.956531 -0.125246,1.704675 -0.176775,0.502956 -0.367292,1.659887 -0.458688,2.785418 -0.08598,1.05883 -0.254095,2.202254 -0.373591,2.540943 -0.119496,0.338686 -0.176098,0.656963 -0.125783,0.707279 0.05032,0.05032 0.0033,0.09148 -0.104597,0.09148 -0.203746,0 -0.763102,-0.549639 -1.370227,-1.346427 -0.324843,-0.426319 -0.403959,-0.454102 -1.007176,-0.353677 -1.195616,0.199049 -1.245981,0.250751 -1.150014,1.180572 0.07931,0.768394 0.02828,0.939848 -0.7186,2.414747 -0.791236,1.562484 -0.828334,1.606057 -2.342625,2.75152 -1.358161,1.027361 -1.631715,1.318399 -2.33192,2.480972 -0.436295,0.724392 -0.916727,1.665714 -1.067629,2.091827 -0.202705,0.5724 -0.710234,2.681741 -0.864157,3.591523 -0.02686,0.158754 -0.528136,0.496725 -0.636973,0.42946 -0.345245,-0.213373 0.01252,-3.311908 0.526901,-4.563309 0.122605,-0.298279 0.272488,-0.953414 0.333074,-1.455856 0.06058,-0.502441 0.283114,-1.408899 0.494507,-2.014351 0.211393,-0.605453 0.4528,-1.65054 0.53646,-2.322417 0.161058,-1.293463 0.929147,-3.187168 1.814878,-4.474534 0.376055,-0.546577 0.464073,-0.854259 0.520485,-1.819449 0.0552,-0.944449 0.207446,-1.494783 0.814322,-2.943557 0.723374,-1.726886 1.694754,-4.549707 2.719368,-7.902458 0.273465,-0.894837 0.664249,-2.025809 0.868408,-2.513271 0.405046,-0.967114 0.468508,-1.809847 0.195304,-2.593557 -0.13339,-0.382644 -0.129527,-0.715853 0.01599,-1.378936 0.180635,-0.82314 0.293889,-0.975022 1.933031,-2.592347 0.957634,-0.944889 1.953962,-2.027285 2.214061,-2.405327 0.260099,-0.378041 0.654756,-0.78467 0.877015,-0.903619 0.499763,-0.267466 0.507776,-0.490951 0.03722,-1.038007 l -0.366887,-0.426531 -1.531253,0.299576 c -1.309576,0.256207 -1.683536,0.402824 -2.583181,1.012776 -0.978401,0.663348 -2.132274,1.857359 -2.944191,3.046606 -0.188365,0.275908 -0.732096,0.70976 -1.208292,0.964117 -0.738857,0.39466 -0.977506,0.449241 -1.627595,0.372248 l -0.761788,-0.09022 -0.774131,0.96534 c -0.425773,0.530936 -1.072856,1.337771 -1.437963,1.792966 -0.771424,0.96177 -1.286384,1.133861 -2.512647,0.839685 -1.043998,-0.250453 -1.756061,-0.09256 -2.46305,0.546166 -0.520693,0.470415 -2.650305,1.576508 -2.650305,1.376536 0,-0.188446 0.529285,-1.10153 0.831613,-1.434642 0.181783,-0.200292 0.813361,-0.688385 1.403507,-1.084651 1.77138,-1.189431 1.920877,-1.313545 2.413787,-2.003952 0.520489,-0.729032 1.106628,-1.141714 2.1689,-1.52705 1.677591,-0.608544 1.966669,-0.809598 2.402447,-1.670898 0.24954,-0.493206 0.677951,-1.020047 1.061119,-1.304919 0.353437,-0.262767 0.934914,-0.706935 1.29217,-0.987041 0.357256,-0.280105 1.047553,-0.788193 1.533994,-1.129083 0.530706,-0.371912 1.099441,-0.953736 1.422016,-1.454742 0.29567,-0.459218 0.902946,-1.232367 1.349501,-1.718109 0.446557,-0.485741 1.109725,-1.399978 1.473708,-2.031637 0.363982,-0.631657 0.861895,-1.44685 1.106471,-1.811537 0.244576,-0.364688 0.444685,-0.718803 0.444685,-0.786922 0,-0.06812 0.218055,-0.453059 0.484568,-0.85542 0.3549,-0.535799 0.729628,-0.855269 1.400347,-1.193847 0.597357,-0.301546 0.967849,-0.599241 1.065534,-0.856173 0.08237,-0.216639 0.254078,-0.498208 0.381581,-0.625712 0.355991,-0.35599 0.277852,-1.089434 -0.230751,-2.165891 -0.593863,-1.256917 -2.709208,-3.382091 -4.256945,-4.276728 -1.302248,-0.752737 -2.073896,-1.51428 -3.076377,-3.036084 -0.886613,-1.345913 -1.736451,-2.228775 -2.540597,-2.639328 -0.323121,-0.164968 -0.810612,-0.577791 -1.083317,-0.917384 -0.272703,-0.339593 -0.682809,-0.664374 -0.911345,-0.721731 -0.422311,-0.105994 -2.139143,-1.20361 -2.306711,-1.474742 -0.101401,-0.164069 2.311888,-0.05687 3.094081,0.13744 0.255667,0.06351 1.075873,0.08285 1.82268,0.04297 l 1.357829,-0.0725 0.559944,0.593714 c 0.307969,0.326541 0.928828,1.16553 1.379687,1.864419 0.450858,0.698888 0.947548,1.306014 1.103755,1.349171 0.156206,0.04316 0.662514,0.164217 1.125127,0.269027 0.75809,0.171752 1.002812,0.34641 2.479202,1.769396 0.900948,0.868359 1.794974,1.662742 1.986724,1.765296 0.451987,0.241736 0.755606,0.07753 1.572414,-0.850416 0.747192,-0.848852 0.818897,-1.441647 0.325726,-2.692829 -0.450254,-1.142303 -0.399235,-1.844691 0.223861,-3.081997 0.642084,-1.275008 1.761146,-2.222421 3.85029,-3.2597 0.749388,-0.372079 1.429232,-0.801152 1.510764,-0.953497 0.08153,-0.152344 0.14824,-0.560484 0.14824,-0.906978 0,-0.526384 0.05089,-0.629987 0.309454,-0.629987 0.170199,0 0.576827,0.241555 0.903615,0.53679 l 0.594161,0.536789 1.519858,-0.128237 c 0.981419,-0.08281 1.705788,-0.07117 2.044684,0.03284 0.486804,0.149405 0.566614,0.121794 1.101643,-0.381128 1.275492,-1.198947 4.607291,-3.107977 6.155023,-3.52666 0.814644,-0.220374 2.971914,-0.220078 3.108193,4.64e-4 0.192784,0.311932 -0.307273,0.580468 -1.70477,0.915481 -0.762123,0.182701 -1.577959,0.431614 -1.812969,0.553142 -0.23501,0.121528 -0.587882,0.22096 -0.784162,0.22096 -0.534927,0 -2.527374,1.017648 -2.88661,1.474344 -0.172884,0.219786 -0.362532,0.619051 -0.42144,0.887256 -0.09351,0.425769 -0.03747,0.551461 0.441687,0.990575 0.301834,0.27661 0.816691,0.575066 1.144126,0.663236 0.749272,0.201757 2.462534,1.30483 2.691702,1.733035 0.352097,0.657898 0.917905,3.345755 0.919685,4.368943 0.002,1.153714 0.383124,2.921533 0.753809,3.496571 0.204951,0.317936 0.320724,0.354077 0.886052,0.27659 1.598044,-0.219036 1.922538,-0.441424 4.554715,-3.121515 l 1.369621,-1.394551 1.124603,0 1.124604,0 0.686068,-1.361184 c 0.377336,-0.748651 0.861273,-1.475983 1.075414,-1.616293 0.21414,-0.140311 0.783252,-0.308101 1.264691,-0.372869 0.637972,-0.08582 0.938372,-0.208908 1.10777,-0.453889 0.497957,-0.72014 0.931783,-1.076695 1.310034,-1.076695 0.719777,0 0.379789,0.603644 -0.726979,1.290737 -0.233265,0.144813 -0.560299,0.523756 -0.726744,0.842093 -0.166442,0.318339 -1.038479,1.24121 -1.937859,2.050824 -1.436347,1.292991 -1.662827,1.566257 -1.862107,2.246778 -0.415469,1.418794 -1.647016,2.698796 -4.134564,4.297235 -0.627724,0.40336 -1.455089,0.948624 -1.838591,1.211696 -0.383501,0.263072 -1.045735,0.700054 -1.471631,0.97107 -0.740453,0.471182 -0.793579,0.552572 -1.213435,1.859013 -0.241493,0.75144 -0.404375,1.456689 -0.36196,1.56722 0.04241,0.110529 0.658186,0.530672 1.368383,0.93365 1.915988,1.087165 3.369193,2.654191 4.317003,4.655131 0.406017,0.857151 1.058244,1.923963 1.459704,2.387558 0.399155,0.460932 0.922716,1.227935 1.16347,1.704452 0.240755,0.476517 0.592932,1.00585 0.782614,1.176295 0.189684,0.170445 0.560289,0.623674 0.823568,1.007176 0.263278,0.383501 0.935163,1.185368 1.493078,1.781926 0.557914,0.596558 1.293143,1.456942 1.633841,1.911964 0.728954,0.973561 1.074553,1.178866 2.384223,1.416353 1.394145,0.252808 1.632367,0.369116 2.71509,1.325603 1.014137,0.895896 1.841027,2.086412 1.449147,2.086412 -0.116242,0 -0.281537,-0.07019 -0.367322,-0.155973 -0.08578,-0.08578 -1.001416,-0.254729 -2.034737,-0.375433 -2.119447,-0.247577 -2.958768,-0.553177 -4.066516,-1.480636 -0.805078,-0.67405 -0.985452,-0.711721 -2.136055,-0.446131 -0.734422,0.169525 -0.795951,0.156384 -1.677535,-0.358283 -0.632601,-0.369311 -1.154351,-0.850167 -1.6899,-1.557446 -1.335189,-1.763333 -3.10099,-4.350391 -3.697884,-5.417737 -0.31538,-0.563952 -0.658289,-1.095231 -0.76202,-1.18062 -0.166155,-0.136774 -0.9477,-0.244516 -1.449695,-0.199851 -0.306955,0.02731 -0.380671,1.002268 -0.136614,1.806822 0.127726,0.421055 0.234514,1.009601 0.237308,1.30788 0.01119,1.194957 0.798684,2.229936 2.305878,3.030554 1.571243,0.83464 2.377204,1.515835 2.830944,2.392701 0.418547,0.808853 0.441769,0.960096 0.456304,2.971732 0.0084,1.165729 -0.03349,2.198473 -0.09314,2.294988 -0.102683,0.166146 0.13943,1.352312 0.885893,4.34019 0.180974,0.724392 0.669913,2.223534 1.086527,3.331428 0.859416,2.285417 1.197471,3.568051 1.200788,4.555962 0.0015,0.440151 0.245557,1.292315 0.687909,2.401727 0.60731,1.523123 0.690252,1.8788 0.726183,3.114071 0.02974,1.022382 -0.03546,1.628304 -0.244314,2.270444 l -0.284881,0.875891 0.468628,0.906036 c 0.613054,1.185269 0.930836,2.329044 1.065503,3.835028 0.119152,1.332455 -0.08304,1.529405 -0.418989,0.40812 -0.09905,-0.330606 -0.491429,-0.972659 -0.871946,-1.426784 -0.829848,-0.990368 -1.217965,-1.798914 -1.363271,-2.840031 -0.09728,-0.697016 -0.208105,-0.868707 -1.104516,-1.711163 -0.786791,-0.739431 -1.113467,-1.195757 -1.552982,-2.169302 -0.759446,-1.68221 -1.357651,-3.934301 -1.140355,-4.293156 0.166074,-0.274268 0.163602,-0.275994 -0.47696,-0.333143 -0.249546,-0.0223 -1.065924,1.574518 -1.065924,2.084889 0,0.74657 -0.596096,1.860787 -1.455024,2.719714 -0.481114,0.481114 -0.867518,1.02068 -0.920438,1.285276 -0.05017,0.250827 -0.276153,0.583454 -0.502198,0.739171 -0.815312,0.561654 -1.761115,1.48067 -1.860883,1.808178 -0.05602,0.183891 -0.579374,1.310533 -1.163014,2.503649 -0.679421,1.388921 -1.205754,2.726717 -1.4631,3.718804 -0.221067,0.852226 -0.917537,3.048644 -1.547712,4.88093 -0.630174,1.832285 -1.225347,3.642982 -1.322606,4.023768 -0.378649,1.482486 -2.225473,4.63063 -3.148627,5.367232 -1.396086,1.11396 -2.581987,1.40299 -3.632512,0.885297 z m 1.188077,-15.094911 c 0.535717,-0.18675 0.620777,-0.365574 0.242874,-0.510588 -0.373652,-0.143385 -0.824822,-0.112841 -1.185643,0.08026 -0.325235,0.17406 -0.325162,0.174628 0.04892,0.381884 0.206052,0.114163 0.381668,0.210038 0.390257,0.213057 0.0086,0.003 0.235202,-0.07106 0.503588,-0.164618 z m 1.451133,-10.552708 c 0.564601,-0.527416 0.546439,-1.168496 -0.04242,-1.49745 -0.534085,-0.298354 -1.461615,-0.11392 -1.886901,0.375201 -0.181127,0.208315 -0.450502,0.378755 -0.598608,0.378755 -0.4964,0 -0.75948,0.185399 -0.75948,0.535224 0,0.497877 0.529279,0.696122 1.765854,0.661413 0.927767,-0.02604 1.128268,-0.08575 1.521559,-0.453143 z m 10.007257,-0.652185 c 0.536871,-0.280475 1.158434,-0.951766 1.519261,-1.64081 0.233729,-0.446333 0.30283,-1.077149 0.390394,-3.563854 0.129275,-3.671181 -0.07761,-4.811464 -0.750812,-4.13826 -0.17543,0.17543 -0.23115,0.539878 -0.214448,1.402629 0.02229,1.151514 0.01626,1.170425 -0.498755,1.563247 -0.661348,0.504436 -0.752841,0.49885 -1.086703,-0.06633 -0.350643,-0.593594 -0.90926,-0.736779 -1.596279,-0.409162 -0.847878,0.404324 -1.013202,0.32653 -1.693968,-0.797119 -0.546086,-0.90135 -0.702253,-1.051799 -1.161378,-1.118856 -0.491675,-0.07181 -0.543582,-0.134113 -0.710015,-0.852226 -0.09876,-0.426113 -0.186255,-1.074711 -0.194435,-1.441328 -0.0085,-0.381169 -0.161808,-0.921879 -0.35804,-1.26284 -0.322419,-0.560215 -0.330532,-0.646383 -0.134201,-1.425251 0.314493,-1.247627 0.712301,-1.934664 1.223369,-2.112822 0.33922,-0.118252 0.584267,-0.425613 1.014483,-1.272453 0.725582,-1.428239 0.771441,-2.549132 0.153749,-3.75793 -0.29627,-0.579789 -0.715896,-0.536665 -1.265457,0.130049 -0.25214,0.30589 -0.495948,0.495468 -0.541794,0.421286 -0.08256,-0.133583 0.156541,-1.627611 0.53347,-3.333409 0.170323,-0.770799 0.160655,-0.99391 -0.07553,-1.743189 -0.31903,-1.01208 -0.635246,-1.111234 -1.242468,-0.389593 -0.475184,0.564727 -0.712601,1.351883 -0.722941,2.396916 -0.0042,0.426113 -0.108899,1.053662 -0.232631,1.394552 -0.385747,1.062764 -0.807195,3.045849 -0.922047,4.338604 -0.06057,0.681781 -0.280694,1.762558 -0.48916,2.401727 -0.298541,0.915339 -0.397863,1.622796 -0.467708,3.331429 l -0.08868,2.169302 0.923263,1.757734 c 0.959505,1.826728 0.923844,1.788213 3.104937,3.353413 0.192509,0.138149 0.457395,0.508933 0.588636,0.823969 0.142549,0.342176 0.959758,1.274624 2.029752,2.315979 1.888144,1.837607 2.129513,1.961669 2.966135,1.524598 z m -27.432246,-6.31799 c 0.108721,-0.226836 0.268346,-1.306761 0.354721,-2.399832 0.08638,-1.093071 0.318328,-2.599703 0.515448,-3.348072 0.197118,-0.748369 0.341935,-1.585099 0.321813,-1.859402 -0.189884,-2.588527 -0.369491,-3.141369 -0.981505,-3.021149 -0.428419,0.08415 -0.863823,2.132092 -1.244566,5.853846 -0.16316,1.594886 -0.0612,4.5539 0.172509,5.00649 0.197504,0.382476 0.621866,0.268267 0.86158,-0.231881 z m 27.123271,-4.111488 c 0.05243,-0.721007 -0.171917,-1.282922 -0.512208,-1.282922 -0.332319,0 -0.585809,0.59607 -0.479513,1.127551 0.217832,1.089158 0.91587,1.198519 0.991721,0.155371 z m -2.4721,-0.624652 c 0.162455,-0.761693 0.119747,-0.987762 -0.301756,-1.597365 -0.150889,-0.218223 -0.29643,-0.706316 -0.323424,-1.084651 -0.06763,-0.947829 -0.541529,-1.025885 -1.306165,-0.215136 -0.691528,0.733235 -0.685075,1.388101 0.01748,1.774058 0.387761,0.213019 0.494708,0.40473 0.644892,1.156007 0.09902,0.495351 0.27175,0.957316 0.383838,1.02659 0.320272,0.197939 0.718651,-0.278918 0.885132,-1.059503 z m 1.958034,-3.90637 c 0.102377,-0.322563 -0.146952,-0.935554 -0.380528,-0.935554 -0.236595,0 -0.340988,0.591409 -0.163073,0.923849 0.213299,0.39855 0.419413,0.402988 0.543601,0.0117 l 0,7e-6 z M 55.159863,32.638652 c 1.615249,-0.984829 1.43835,-3.25479 -0.253647,-3.25479 -1.518948,0 -2.255823,1.873435 -1.243215,3.160758 0.379298,0.4822 0.815295,0.509589 1.496862,0.09403 z M 78.22386,84.765867 c -0.05173,-0.134804 -0.09405,-0.352524 -0.09405,-0.483823 0,-0.194631 0.04293,-0.203096 0.232425,-0.04583 0.251326,0.208581 0.320057,0.774751 0.09405,0.774751 -0.0761,0 -0.180696,-0.110294 -0.232425,-0.245099 z M 45.125425,67.346649 c 0,-0.302028 0.164351,-0.403801 0.350874,-0.217276 0.124133,0.124132 -0.03833,0.527176 -0.212502,0.527176 -0.0761,0 -0.138372,-0.139455 -0.138372,-0.3099 z m 1.735442,-3.439894 c -0.102268,-0.102267 -0.185941,-0.274133 -0.185941,-0.381924 0,-0.302179 -0.529846,-0.516787 -1.2759,-0.516787 -0.782096,0 -1.048352,-0.201773 -1.048352,-0.79446 0,-0.296294 0.165767,-0.559218 0.554695,-0.879805 0.784581,-0.646719 1.304436,-2.126935 1.305522,-3.717301 9.3e-4,-1.259759 -0.008,-1.236897 1.073609,-2.765888 0.66023,-0.933305 0.803996,-1.031835 1.089345,-0.746576 0.354911,0.354803 0.264015,1.697844 -0.214606,3.170875 -0.639836,1.969199 -0.684231,2.865501 -0.194873,3.934398 l 0.399421,0.87245 -0.495793,1.001246 c -0.503544,1.016901 -0.674316,1.156583 -1.007127,0.823772 z M 46.192924,49.411169 c -0.05353,-0.846302 0.21603,-1.675145 0.489776,-1.505959 0.196582,0.121493 0.187806,1.101776 -0.01323,1.477408 -0.199856,0.373434 -0.453774,0.388647 -0.47655,0.02855 l 7e-6,0 z m 1.644128,-35.478034 c -1.445091,-0.347529 -3.976572,-1.32459 -4.071268,-1.571364 -0.427481,-1.113994 4.339366,-0.451492 5.656821,0.786194 0.44823,0.421089 0.449392,0.833407 0.0027,0.953119 -0.420378,0.112658 -0.422239,0.112461 -1.588239,-0.167949 l 6e-6,0 z"
       style="fill:#000000;fill-opacity:1"
       sodipodi:nodetypes="cssssssssssssssscccsssssssssssssssssssssssssssssssssssssssssssscccssscccssssssssssssssssssssssssssssscccsssssssssssscccssssssssssssssscccccsssssssssssssssssssssssssssssssssssssssssssscccssssssssssssssssssccssssccsssssccssssssssssssssssssssssssscccsssccssssssccssccssssssccsscccssccsssccssccsssssssscccccsscccssscc" />
    <path
       id="path3990"
       d="M 53.068174,99.605347 C 52.405936,99.252031 51.532502,98.417999 51.103219,97.729031 50.588481,96.902914 49.421221,94.041635 48.632994,91.673822 48.250001,90.523317 47.762001,89.159037 47.548552,88.642089 47.335102,88.12514 47.04572,87.08985 46.905481,86.341442 46.765244,85.593036 46.538937,84.69117 46.40258,84.337297 46.21403,83.847978 46.151148,83.081591 46.140012,81.137212 L 46.125372,78.580534 45.55336,77.39844 c -0.628449,-1.298716 -0.6266,-1.456673 0.03245,-2.773546 0.409437,-0.81811 1.624409,-2.426649 2.154015,-2.851768 0.205213,-0.164725 0.598002,-0.792274 0.872867,-1.394551 0.274863,-0.602277 0.835082,-1.467477 1.244931,-1.922665 0.409849,-0.455189 1.099892,-1.501103 1.533429,-2.324252 0.780855,-1.4826 0.793316,-1.49627 1.328751,-1.457461 0.297278,0.02155 0.937188,-0.03937 1.422023,-0.135382 1.515736,-0.300144 1.892335,-0.06467 2.849435,1.781684 0.725277,1.399135 1.007452,1.704672 2.181245,2.361843 0.750121,0.419971 1.020151,0.675169 1.264546,1.195098 0.181625,0.386391 0.741836,1.039567 1.348186,1.571914 0.570588,0.500947 1.455967,1.397101 1.967509,1.991451 1.189221,1.381734 1.291649,0.442437 -1.027554,9.42301 -0.564362,2.18536 -1.412505,5.113918 -1.884762,6.507906 -0.472257,1.393989 -0.993996,3.022619 -1.159421,3.619177 -0.400368,1.443817 -0.784663,2.318089 -1.700496,3.868625 -0.902177,1.527418 -1.468645,2.130119 -2.487149,2.646234 -0.875351,0.443574 -1.715756,0.478085 -2.42519,0.09959 l -2e-6,0 z m 3.091707,-12.726072 c 0.751483,-0.34074 1.205836,-0.687124 1.798201,-1.370901 0.849954,-0.981115 1.054903,-1.392114 1.276834,-2.560523 0.107771,-0.567394 0.08655,-0.878034 -0.08861,-1.297263 -0.126675,-0.303172 -0.230317,-0.673624 -0.230317,-0.823227 0,-0.558378 -0.351145,-0.61683 -4.294505,-0.714872 -4.289501,-0.106647 -4.555468,-0.05433 -3.634093,0.714869 0.270044,0.225443 0.490991,0.482496 0.490991,0.571228 0,0.08873 -0.274276,0.351403 -0.609501,0.583713 -0.956091,0.662573 -1.20843,1.880333 -0.646164,3.118321 0.280781,0.618215 0.971477,1.303952 1.315299,1.305851 0.09504,4.65e-4 0.381974,0.116173 0.637642,0.256996 0.500117,0.275466 1.915173,0.637623 2.573982,0.658764 0.222575,0.0071 0.857183,-0.192187 1.410242,-0.442956 z m 0.431505,-10.982829 c 1.527517,-0.889352 1.932093,-1.776758 1.532867,-3.362228 -0.146376,-0.581309 -0.267307,-0.72799 -0.813488,-0.986696 -0.569759,-0.269875 -0.932333,-0.299704 -3.239947,-0.266565 l -2.598392,0.03732 -0.623367,0.608703 c -0.80201,0.783142 -0.867163,1.094203 -0.458642,2.18968 0.673702,1.80657 1.340167,2.126789 4.884243,2.346751 0.170445,0.01058 0.762971,-0.244553 1.316726,-0.566961 z m -3.098653,-6.537818 c 0.2066,-0.135625 0.2066,-0.169531 0,-0.305156 -0.265992,-0.174613 -0.828955,-0.206418 -0.980007,-0.05537 -0.150316,0.150315 0.203259,0.518221 0.495391,0.515472 0.138705,-0.0012 0.356782,-0.07103 0.484616,-0.15495 z m 2.866578,-0.152578 c 0.05431,-0.08788 -0.07587,-0.15495 -0.300755,-0.15495 -0.218087,0 -0.396521,0.06973 -0.396521,0.15495 0,0.08522 0.13534,0.15495 0.300755,0.15495 0.165416,0 0.34385,-0.06973 0.396521,-0.15495 z m -26.871618,9.852247 c -0.0067,-0.163342 0.02989,-0.254861 0.08138,-0.203372 0.05149,0.05149 0.05699,0.185134 0.01223,0.296988 -0.04946,0.123608 -0.08618,0.08689 -0.09361,-0.09362 l 6e-6,0 z m 0.673746,-1.658165 c -0.260038,-0.420753 -0.354798,-1.333434 -0.199197,-1.918601 0.22383,-0.841754 1.286105,-2.945173 1.841567,-3.6465 0.423077,-0.534179 0.44729,-0.637568 0.36575,-1.561777 -0.08362,-0.94779 -0.04848,-1.081651 0.829241,-3.159031 0.504108,-1.193116 1.318726,-3.389534 1.810261,-4.880929 0.491536,-1.491396 0.996816,-2.816219 1.122846,-2.944053 0.202365,-0.205263 0.221272,-0.02418 0.161776,1.549501 -0.161841,4.28072 -0.438274,8.49262 -0.594921,9.064584 -0.104647,0.382096 -0.405061,0.83743 -0.783314,1.187254 -0.595485,0.550732 -0.608699,0.584979 -0.448438,1.162127 0.266229,0.958772 0.196273,1.573376 -0.29664,2.606184 -0.506196,1.060638 -0.988454,1.503684 -2.439264,2.240932 -1.019898,0.518274 -1.209292,0.559801 -1.369667,0.300309 z m 44.314516,-1.823484 c -0.676779,-0.412701 -1.614453,-2.607429 -1.614453,-3.778807 0,-0.69775 0.08329,-0.955819 0.489428,-1.516478 l 0.489429,-0.675636 -0.446218,-0.316052 c -0.849412,-0.601629 -1.282934,-1.121947 -1.437125,-1.724854 -0.213914,-0.836427 -0.394695,-6.868314 -0.219692,-7.330098 0.140412,-0.370498 0.141846,-0.369943 0.487024,0.188565 0.190409,0.308089 0.472528,0.998264 0.626933,1.533722 0.154405,0.535458 0.603725,1.727073 0.998488,2.648034 1.148701,2.679865 1.398323,3.574224 1.207457,4.326173 -0.135458,0.53366 -0.113651,0.729824 0.135394,1.217993 0.473126,0.927403 0.961837,3.348887 0.868325,4.302397 -0.08404,0.856884 -0.424684,1.417741 -0.860469,1.41672 -0.13593,-3.1e-4 -0.461966,-0.131574 -0.724521,-0.291679 z M 62.324891,65.487247 c -0.431426,-0.431426 -0.38722,-0.705127 0.149812,-0.927574 0.252843,-0.104731 0.540292,-0.287508 0.638775,-0.406174 0.310167,-0.373727 0.718556,-0.250301 0.900706,0.272218 0.239573,0.687238 0.21138,1.167488 -0.07499,1.277377 -0.513359,0.196994 -1.307668,0.09079 -1.614304,-0.215847 z m 5.454993,-3.532665 c -0.422153,-0.790666 -0.711939,-0.939536 -1.116388,-0.573514 -0.390152,0.353082 -0.67091,0.227747 -1.166132,-0.520586 -0.38778,-0.585975 -0.395022,-0.634397 -0.162211,-1.084605 0.13403,-0.259185 0.243247,-0.736188 0.242703,-1.060005 -0.0011,-0.676788 -0.849015,-4.024828 -1.094041,-4.320067 -0.102949,-0.124045 -0.358197,-0.165769 -0.687343,-0.112356 -0.467872,0.07593 -0.557466,0.02939 -0.842052,-0.437412 -0.175159,-0.287307 -0.318731,-0.757123 -0.319049,-1.044037 -4.65e-4,-0.470376 0.0337,-0.510843 0.348059,-0.411627 0.979636,0.309183 1.189651,0.285676 1.355968,-0.151773 0.12362,-0.325143 0.08819,-0.694109 -0.15415,-1.605429 -0.173061,-0.650796 -0.374845,-1.497039 -0.448409,-1.88054 -0.319135,-1.663728 -0.849525,-3.358122 -1.155195,-3.690419 -0.323909,-0.352126 -0.507395,-0.366624 -1.546094,-0.12217 -0.100478,0.02365 -0.144519,0.01846 -0.09787,-0.01153 0.12958,-0.08331 -0.02289,-1.125607 -0.178749,-1.221933 -0.07545,-0.04663 -0.215536,0.08721 -0.311314,0.297422 -0.139317,0.305768 -0.123955,0.453849 0.07682,0.740491 0.138026,0.197061 0.250957,0.396392 0.250957,0.442959 0,0.04657 -0.477913,0.575054 -1.062027,1.174412 -1.214209,1.245897 -1.671944,2.229828 -1.873516,4.027235 -0.0677,0.603666 -0.206367,1.253184 -0.308154,1.443373 -0.405825,0.758291 -0.627215,1.868394 -0.637312,3.195643 -0.0065,0.857176 -0.120723,1.782656 -0.296366,2.401727 -0.726941,2.562172 -1.08059,3.619087 -1.271495,3.79999 -0.113746,0.107786 -0.742011,0.243668 -1.396147,0.30196 -1.132914,0.100957 -1.200044,0.08887 -1.415036,-0.254793 -0.276802,-0.442468 -0.643624,-2.003983 -0.972094,-4.13807 -0.136124,-0.884395 -0.350781,-1.895444 -0.477017,-2.246777 -0.126236,-0.351334 -0.327738,-1.510383 -0.447783,-2.575665 -0.179796,-1.595542 -0.300978,-2.094728 -0.687641,-2.832591 -0.281659,-0.537489 -0.527142,-1.312109 -0.61381,-1.936877 -0.188487,-1.35877 -1.516139,-4.02553 -2.366485,-4.753395 -0.404394,-0.346149 -0.585481,-0.62835 -0.585481,-0.912402 0,-0.707532 -0.410999,-0.467948 -0.690029,0.40224 -0.143466,0.447418 -0.489526,1.162513 -0.76902,1.5891 -0.279495,0.426586 -0.625158,1.001838 -0.768141,1.278339 -0.274181,0.530205 -0.624911,0.655944 -0.770607,0.276267 -0.113239,-0.295095 0.121487,-1.682384 0.430335,-2.543388 0.3547,-0.988826 0.317865,-1.667922 -0.105428,-1.943717 -0.511475,-0.333253 -3.073284,-0.400049 -3.447472,-0.08989 -0.154225,0.127834 -0.801398,0.886811 -1.438162,1.686615 -0.636765,0.799803 -1.645623,1.950308 -2.241909,2.556678 -0.596285,0.606368 -1.674362,1.89165 -2.395724,2.856183 -1.537498,2.055783 -1.938007,2.351096 -3.189688,2.351904 -1.00857,6.19e-4 -0.810953,-0.149372 -2.724715,2.068482 -1.236399,1.432859 -1.695287,1.677433 -2.453555,1.307666 -0.356154,-0.173678 -0.429018,-0.305695 -0.416695,-0.754976 0.02917,-1.063203 0.607073,-1.508962 3.674532,-2.834282 0.474358,-0.204949 0.663395,-0.420028 0.961369,-1.093797 0.318998,-0.721312 0.505204,-0.917395 1.330528,-1.401103 2.436284,-1.427867 5.297386,-4.33037 7.211609,-7.315962 2.260397,-3.525516 2.238614,-3.505888 4.083968,-3.679834 1.924844,-0.181437 2.805907,-0.735362 2.697081,-1.695658 -0.02041,-0.180069 -0.04291,-0.762393 -0.05002,-1.294055 l -0.01291,-0.96666 -1.433289,-1.376622 c -2.214799,-2.127236 -3.97066,-3.540182 -5.074618,-4.083553 -1.672496,-0.823212 -1.953647,-1.10224 -4.025727,-3.995343 -0.335706,-0.468724 -1.048963,-1.170193 -1.585015,-1.55882 -1.41154,-1.023339 -1.399983,-1.868498 0.02606,-1.90589 0.838653,-0.02199 1.322962,0.371545 2.270988,1.84534 1.221176,1.898433 1.594475,2.23917 2.453167,2.23917 0.393541,0 0.939903,0.09402 1.21414,0.208926 0.47921,0.200797 2.051689,1.75867 2.781992,2.756154 0.532807,0.727734 2.31139,2.148275 2.689741,2.148275 0.184092,0 0.408602,-0.08903 0.49891,-0.197846 0.180791,-0.21784 0.958399,-2.513019 0.958399,-2.8288 0,-0.108892 0.244047,-0.490091 0.542326,-0.847107 0.298279,-0.357016 0.542003,-0.729684 0.541608,-0.828149 -4.65e-4,-0.09847 -0.173059,-0.597393 -0.383698,-1.108728 -0.210638,-0.511336 -0.384635,-1.158634 -0.386657,-1.43844 -0.0048,-0.663357 0.625018,-1.891554 1.333061,-2.599597 1.147166,-1.147167 3.740528,-2.55459 4.661429,-2.529769 0.322967,0.0087 0.846452,-0.09628 1.163299,-0.233299 0.858562,-0.371282 1.937077,-0.313975 2.677867,0.142291 0.340891,0.209959 0.828746,0.382102 1.084123,0.382539 0.76433,0.0012 2.811233,0.761814 3.765457,1.399022 1.147526,0.766287 1.600195,1.547766 1.69936,2.933735 0.07928,1.108082 -0.10548,1.680716 -0.722445,2.239062 -0.409918,0.370969 -0.417236,0.890721 -0.01763,1.252355 0.519058,0.469741 1.231565,1.694315 1.571493,2.7009 0.385921,1.14277 0.827104,1.51993 1.502524,1.284477 1.15451,-0.402465 4.463466,-2.905828 5.280631,-3.995021 1.113829,-1.484608 1.487621,-1.82001 2.011726,-1.805109 0.884133,0.02514 1.327439,0.617312 1.094278,1.461752 -0.232603,0.842416 -1.704704,2.136587 -3.397262,2.986641 -0.795199,0.399373 -1.696709,0.891487 -2.003353,1.093588 -0.306645,0.2021 -1.185084,0.619711 -1.952087,0.928026 -1.919913,0.771751 -2.129964,0.986575 -2.484076,2.540524 -0.108192,0.474778 -0.313459,1.175714 -0.456151,1.557638 -0.236893,0.634056 -0.238408,0.738513 -0.01742,1.201924 0.359534,0.75395 1.07423,1.123273 2.182897,1.128021 1.271786,0.0055 2.063911,0.402054 3.328277,1.666419 0.75339,0.75339 1.206679,1.378672 1.601208,2.208762 0.590439,1.242288 2.790956,4.475642 4.057624,5.962118 0.426113,0.500056 1.370664,1.541179 2.099003,2.313605 0.728338,0.772427 1.583313,1.730911 1.899942,2.129967 0.663201,0.835843 1.825924,1.366271 2.994931,1.366271 0.590853,0 0.780501,0.07893 1.156314,0.481238 0.537942,0.575868 0.552402,0.69241 0.114962,0.926521 -0.745558,0.399011 -3.132842,-0.36538 -3.926548,-1.257251 -0.402816,-0.452637 -1.167495,-0.770309 -1.854239,-0.770309 -0.318971,0 -0.989566,-0.225485 -1.608166,-0.54074 -0.919489,-0.468597 -1.155494,-0.682772 -1.768958,-1.605338 -0.389351,-0.58553 -0.931136,-1.510133 -1.203966,-2.054676 -0.27283,-0.544541 -0.732775,-1.281692 -1.022098,-1.638113 -0.592678,-0.730123 -1.251016,-2.132476 -1.680286,-3.579235 -0.249297,-0.840213 -0.846145,-1.742325 -1.148863,-1.736469 -0.0523,0.0011 -0.478586,0.104776 -0.94731,0.230586 -0.468724,0.12581 -1.251552,0.229574 -1.739618,0.230586 -0.779188,0.0016 -0.918959,0.05002 -1.146299,0.396984 -0.278382,0.424865 -0.306605,0.180025 0.416291,3.611494 0.317345,1.506394 1.121705,4.200409 1.38185,4.62818 0.194086,0.319151 0.557078,0.560726 1.208746,0.804433 1.07031,0.400269 3.270086,1.875642 3.551513,2.381973 0.241452,0.434413 0.252297,1.474514 0.02479,2.378016 -0.155391,0.617117 -0.215563,0.687418 -0.503588,0.58838 -0.179911,-0.06186 -0.75721,-0.142887 -1.282888,-0.180053 -0.829581,-0.05865 -1.000706,-0.02265 -1.296057,0.272704 -0.37107,0.37107 -0.371141,0.150463 0.0011,3.481321 0.09524,0.852226 0.152526,2.142186 0.127296,2.866578 l -0.04587,1.317076 -0.355639,-0.666087 2.1e-5,0 z M 54.721252,54.878893 c 0.421093,-0.217756 0.723018,-0.662522 0.560242,-0.825297 -0.132944,-0.132944 -1.638475,-0.331045 -1.862514,-0.245072 -0.345524,0.132589 -0.414947,0.540308 -0.158615,0.93152 0.277685,0.423801 0.8117,0.474556 1.460887,0.138849 z m -0.249894,-9.863999 c 0.553826,-0.284534 1.190677,-0.949036 1.190677,-1.242375 0,-0.183337 -0.191735,-0.328482 -0.581063,-0.43987 -0.850229,-0.24325 -2.40771,-0.352572 -2.650715,-0.186058 -0.293584,0.201174 -0.09491,1.002263 0.392101,1.581047 0.41919,0.498178 1.031006,0.604756 1.649,0.287256 z M 55.971935,40.5213 c 0,-0.186806 -0.424321,-0.17196 -0.542325,0.01897 -0.16748,0.270986 0.08088,0.499973 0.323695,0.298451 0.120246,-0.0998 0.21863,-0.242637 0.21863,-0.317424 z M 55.82863,33.482977 c 0.646746,-0.332756 1.511431,-1.39896 1.624849,-2.003523 0.140769,-0.750363 0.01424,-1.288096 -0.515124,-2.189075 -0.361525,-0.615324 -0.584134,-0.808463 -1.191931,-1.034133 -0.696665,-0.258666 -0.797995,-0.260685 -1.49331,-0.02974 -1.872021,0.621786 -2.559055,2.861733 -1.435942,4.681617 0.689362,1.117038 1.61445,1.293627 3.011458,0.574852 z M 41.598499,56.165185 c -0.358153,-0.358153 -0.208045,-0.735151 0.420358,-1.055739 0.447183,-0.228136 0.695472,-0.500509 0.920988,-1.010326 0.310619,-0.702207 0.645454,-0.930815 0.625159,-0.426822 -0.006,0.149139 -0.267486,0.794119 -0.581063,1.433289 -0.580885,1.184019 -0.966272,1.478768 -1.385442,1.059598 z m -4.205263,-1.927544 c -0.4271,-0.542968 -0.561044,-1.351824 -0.320161,-1.933367 0.259426,-0.626313 1.85763,-1.963999 3.518651,-2.94509 1.742961,-1.029488 1.979239,-1.116363 2.226373,-0.818584 0.158042,0.190429 0.156571,0.375887 -0.0076,0.96004 -0.111922,0.398209 -0.294751,1.224286 -0.406285,1.835724 -0.31894,1.74845 -0.932842,2.657246 -1.670014,2.472226 -0.255505,-0.06413 -0.651617,0.05347 -1.242917,0.369011 -1.0902,0.581763 -1.674494,0.598484 -2.098035,0.06004 l -4e-6,0 z m 6.492588,-1.53478 c 0,-0.04754 0.103599,-0.334379 0.23022,-0.637426 0.246481,-0.58991 0.590076,-0.638295 0.670348,-0.0944 0.03463,0.234653 -0.08622,0.397141 -0.426113,0.572906 -0.260951,0.134941 -0.474455,0.206456 -0.474455,0.158918 z m 17.5216,-2.155392 c -0.0067,-0.163342 0.02989,-0.25486 0.08138,-0.203372 0.05149,0.05149 0.05699,0.185133 0.01223,0.296988 -0.04946,0.123609 -0.08618,0.08689 -0.09361,-0.09362 l 6e-6,0 z"
       style="fill:#000000;fill-opacity:1"
       sodipodi:nodetypes="cssssscccssssssssssssssssscccssssssssssssccsscccssccsssccsssccsscccssssssssssssccscccsssssssssccssssccsssssssssssssssssssssssssssssssssssssssssssssssssssssscccsssssssssssssssssssssssssssssssssssssssssssssssssssssssssssssssscccccsssccssssccssccsssssccssssccssssssscccsssccsscc" />
  </g>
  <g
     id="g3731"
     transform="translate(22.186441,7.059322)"
     inkscape:export-filename="/home/oli/devel/mating-manager/public/images/svg/header.png"
     inkscape:export-xdpi="90.519997"
     inkscape:export-ydpi="90.519997">
    <path
       sodipodi:nodetypes="csssssccssssssssccssssccsssscccsssscccsssssccsssssssssssccssssscccccsssssssssssssccssssssssssccsssssssssccsssccssccsssccsssccssccsscccccsssccsssc"
       style="fill:#d5a86f"
       d="M 52.249419,100.6387 C 50.523054,99.203195 49.87059,98.465475 49.567096,97.605873 49.410726,97.162982 49.080932,96.495868 48.834219,96.1234 48.587505,95.750931 48.207332,94.972436 47.989387,94.393414 47.391111,92.803939 47.199883,92.504815 46.453907,91.991569 45.963609,91.654236 45.656848,91.276208 45.376512,90.663872 45.01631,89.877088 44.905619,89.772359 44.009091,89.370101 42.483449,74.934134 35.871089,75.867817 30.789386,85.002406 c -0.567874,0.156068 -0.954995,0.540262 -1.369575,1.359223 -0.335001,0.661761 -0.409202,1.02088 -0.409202,1.980477 0,1.389749 -0.1043,1.479454 -1.290208,1.109678 -0.44089,-0.137473 -1.066306,-0.2902 -1.389813,-0.339392 -0.875649,-0.133151 -1.019029,-0.571041 -0.59653,-1.821843 0.182874,-0.541394 0.332675,-1.36294 0.332889,-1.825657 1.55e-4,-0.462715 0.179531,-1.503714 0.39848,-2.313328 0.571982,-2.115033 0.542097,-3.286085 -0.08897,-3.486379 C 26.010071,79.548898 25.8459,79.07031 26.044866,78.698538 30.284681,66.008327 42.75725,45.11891 21.629356,58.19399 c -0.159793,0.79896 -0.640485,0.916731 -1.635772,0.40077 -1.029967,-0.533942 -1.209468,-0.67932 -1.374406,-1.113141 -0.33312,-0.876171 0.978289,-3.146778 2.402109,-4.159076 0.362042,-0.257402 1.087514,-0.897261 1.612161,-1.421908 0.908292,-0.908291 1.16268,-1.451179 0.788393,-1.682501 18.046106,-15.947546 17.49679,-15.83653 8.766167,-26.960265 -0.320468,-0.252663 -0.939864,-0.816955 -1.376436,-1.253979 -0.436574,-0.437026 -1.401862,-1.128894 -2.145085,-1.537485 -0.743225,-0.408591 -1.565037,-0.963397 -1.826254,-1.232903 -0.810167,-0.835882 -0.767037,-2.198464 0.08183,-2.585235 0.333028,-0.151738 0.512076,-0.124849 1.113113,0.167157 1.417333,0.623777 2.908573,0.597536 4.387651,0.274815 24.276705,16.81978 0.983171,-5.093678 12.082811,-6.358686 1.949781,0.0018 4.208642,0.593572 5.278605,1.382966 0.947068,0.698724 1.519368,0.754184 3.004477,0.29115 1.191506,-0.371492 1.385478,-0.392344 2.086134,-0.22426 0.424867,0.101925 0.862955,0.129222 0.973527,0.06066 0.110574,-0.06856 0.898319,-0.129247 1.750545,-0.134862 l 1.549501,-0.01021 1.740173,-0.874392 c 1.956932,-0.983307 2.817142,-1.209632 4.701367,-1.2369483 1.415155,-0.020517 2.091474,0.2028933 2.536164,0.8377753 0.322122,0.459895 0.315605,0.491401 -0.230245,1.113089 -0.301767,0.343693 -0.762947,0.632506 -1.278339,0.800556 -1.280099,0.417392 -3.819597,1.726301 -3.935977,2.028683 -0.07215,0.187465 0.21168,0.570054 1.298694,1.750573 0.388552,6.438647 0.937081,13.530563 6.237492,4.881655 0.06682,0.0413 0.512947,-0.06249 0.991384,-0.230648 0.478435,-0.168157 1.133104,-0.306808 1.454817,-0.308112 0.762605,-0.0031 0.85231,-0.07272 1.394459,-1.082279 0.570562,-1.062468 1.559832,-1.859402 2.308162,-1.859402 0.422405,0 0.695494,-0.148329 1.280432,-0.69547 0.408932,-0.382509 1.026684,-0.795378 1.372781,-0.917488 0.346098,-0.122112 0.909418,-0.407414 1.251822,-0.634007 0.347397,-0.229896 0.779827,-0.389385 0.978393,-0.360849 0.452981,0.0651 0.832826,0.727392 0.701997,1.223999 -0.05457,0.207152 -1.56451,1.875782 -3.355417,3.708067 -2.595743,2.65572 -3.306086,3.472856 -3.502186,4.028704 -0.225483,0.639134 -1.024594,1.998072 -1.190837,2.896046 -14.557689,3.22912 0.827316,14.234322 7.015361,21.533322 0,0.38981 0.289477,0.672406 0.689528,0.673136 0.422718,7.75e-4 1.303468,0.549411 1.701537,1.05993 0.49972,0.640882 1.731154,1.958169 3.380828,3.616531 1.53795,1.546049 1.791054,2.02515 1.289685,2.441249 -0.376955,0.312845 -1.467712,0.239398 -1.925251,-0.129639 -0.225708,-0.182034 -0.933322,-0.684084 -1.572491,-1.115663 l -1.162126,-0.784693 -1.249029,0.06069 c -0.83403,0.04053 -2.254183,-1.303024 -2.500852,-1.130249 -2.14028,0.970068 -6.062336,-4.090348 -6.431991,-0.721236 -0.0054,0.454266 1.886946,7.948289 1.817147,7.948289 -0.265703,0 1.903978,6.953983 1.958598,8.035628 0.04725,0.935614 0.13282,1.235972 0.505244,1.773379 0.65185,0.940622 1.068948,3.228862 0.858731,4.711086 -0.08458,0.596383 -0.194133,1.245085 -0.243444,1.44156 -0.04931,0.196476 -0.01367,0.587545 0.07923,0.869044 0.09289,0.2815 0.198246,0.860456 0.234131,1.286569 0.03588,0.426112 0.387138,2.028833 0.780563,3.561602 0.645308,2.514095 0.699662,2.859853 0.555354,3.532742 -0.08798,0.41024 -0.159966,1.16541 -0.159966,1.678152 0,1.573161 -0.366465,1.828527 -1.764224,1.229376 -0.832198,-0.356721 -1.012263,-0.800384 -0.739202,-1.821326 0.245458,-0.917743 0.22795,-1.260053 -0.135231,-2.643927 -0.461609,-1.758921 -0.566207,-1.958861 -1.473846,-2.817269 -7.801555,-5.229571 -5.248967,-4.343183 -9.55208,6.836227 -0.486351,0.235592 -0.969486,0.587566 -1.073632,0.782165 -0.104147,0.1946 -0.168205,0.353818 -0.142355,0.353818 0.103392,0 -0.201647,1.113489 -0.424484,1.549501 -0.347057,0.679068 -0.673071,0.881961 -0.976903,0.607974 -0.134545,-0.121329 -0.308864,-0.218279 -0.387376,-0.215443 -0.395699,0.01429 -0.881764,0.710133 -1.277798,1.829279 -0.242232,0.684519 -0.684656,1.615147 -0.983166,2.068063 -0.29851,0.452914 -0.939565,1.429807 -1.424565,2.170868 -0.485002,0.741063 -1.151746,1.577794 -1.481655,1.859402 -1.068487,0.912054 -3.053464,2.015694 -3.770808,2.096544 -0.627115,0.0707 -0.732549,0.023 -1.667605,-0.75453 z M 43.966573,75.044397 c 0.610988,-0.610989 0.814508,-1.44505 0.572378,-2.345721 -0.182442,-0.678646 -0.02133,-1.063407 0.307564,-0.734513 0.37589,0.37589 0.864953,0.197193 1.505455,-0.550073 0.769653,-0.897947 0.822004,-1.40969 0.182836,-1.787256 -0.659701,-0.389696 -1.027798,-0.329788 -1.698878,0.276492 -0.531101,0.479819 -0.697474,0.542326 -1.443483,0.542326 -0.999173,0 -1.327047,0.272696 -2.206952,1.83555 -0.618604,1.098742 -0.726539,2.032275 -0.304618,2.634653 0.330129,0.471324 0.743203,0.621496 1.742105,0.633329 0.738621,0.0088 0.885078,-0.04627 1.343593,-0.504787 z m 21.371061,-2.463921 c 0.491313,-0.701449 0.27479,-1.000383 -0.765965,-1.057499 -0.740468,-0.04064 -0.852226,-0.0076 -0.852226,0.25167 0,0.312241 0.831563,1.150207 1.14142,1.150207 0.129557,0 0.344104,-0.15497 0.476771,-0.344378 z m -2.420903,-2.573075 c 0.02723,-0.185075 -0.01653,-0.3365 -0.09724,-0.3365 -0.237676,0 -0.530299,0.436682 -0.416265,0.621192 0.159845,0.258635 0.457869,0.09341 0.513504,-0.284692 z M 43.005502,69.392045 c 0.415821,-0.459477 0.725522,-1.559691 0.722999,-2.568466 -0.0029,-1.163794 -0.138697,-1.437591 -0.592511,-1.194717 -0.587474,0.314406 -1.181006,3.019602 -0.813271,3.70672 0.218422,0.408127 0.35436,0.419367 0.682783,0.05646 z m 5.218926,-1.618492 c 0,-0.08644 -0.102772,-0.06966 -0.232425,0.03795 -0.127834,0.106093 -0.232426,0.262623 -0.232426,0.347846 0,0.08644 0.102773,0.06966 0.232426,-0.03795 0.127833,-0.106093 0.232425,-0.262623 0.232425,-0.347846 z m 1.129603,-1.046919 c 0.0446,-0.170563 0.01787,-0.271039 -0.0594,-0.22328 -0.07728,0.04776 -0.140499,0.18731 -0.140499,0.310114 0,0.320708 0.105288,0.274973 0.199902,-0.08683 z m 9.407007,-2.394665 c 0,-0.633038 -0.440912,-1.054595 -1.032211,-0.986902 -0.385904,0.04418 -0.445728,0.121875 -0.488051,0.633838 -0.03999,0.483756 0.03618,0.667901 0.445677,1.077396 l 0.493912,0.493913 0.290337,-0.35855 c 0.159685,-0.197202 0.290336,-0.584065 0.290336,-0.859695 z m -1.175959,-2.912164 c 0.531971,-0.8216 1.140077,-4.306432 0.749846,-4.297082 -0.229131,0.0055 -1.122818,1.550778 -1.272757,2.200745 -0.175412,0.760391 -0.210317,2.188588 -0.05723,2.341674 0.182265,0.182265 0.348907,0.111794 0.580142,-0.245337 z m 0.942234,-5.998399 c 0.05544,-0.252414 0.03453,-0.577336 -0.04645,-0.722054 -0.135831,-0.242714 -0.159602,-0.240041 -0.306515,0.03447 -0.170749,0.319045 -0.07866,1.146516 0.127592,1.146516 0.06852,0 0.169934,-0.206519 0.225374,-0.458931 z"
       id="path2826" />
    <path
       sodipodi:nodetypes="cssssssssssssssscccsssssssssssssssssssssssssssssssssssssssssssscccssscccssssssssssssssssssssssssssssscccsssssssssssscccssssssssssssssscccccsssssssssssssssssssssssssssssssssssssssssssscccssssssssssssssssssccssssccsssssccssssssssssssssssssssssssscccsssccssssssccssccssssssccsscccssccsssccssccsssssssscccccsscccssscc"
       style="fill:#9c6b51"
       d="m 53.056285,99.935597 c -0.282657,-0.13929 -0.8616,-0.565849 -1.286542,-0.947906 -0.971663,-0.873609 -2.106158,-3.16673 -3.255433,-6.58011 -0.437201,-1.298498 -1.06243,-2.991423 -1.389398,-3.762054 -0.326968,-0.77063 -0.699271,-1.851407 -0.82734,-2.401727 -0.338077,-1.452719 -0.914059,-3.071099 -1.464998,-4.116313 -0.26468,-0.502134 -0.481385,-0.987085 -0.481568,-1.077669 -1.55e-4,-0.09058 -0.209515,-0.365107 -0.465182,-0.610052 -0.255668,-0.244945 -0.464851,-0.534388 -0.464851,-0.643205 0,-0.108816 -0.250082,-0.367785 -0.555739,-0.575483 -0.825682,-0.561067 -1.016769,-0.907118 -0.900927,-1.631554 0.105347,-0.658803 0.05783,-0.631045 1.474131,-0.861149 0.698575,-0.113496 0.939255,-0.378408 1.675775,-1.844497 0.587709,-1.169868 0.856807,-1.549592 2.200447,-3.105032 0.401837,-0.465182 0.831853,-1.175429 0.977932,-1.615232 0.163871,-0.49337 0.573636,-1.135654 1.103079,-1.729011 0.972697,-1.090121 1.256246,-1.607721 1.85482,-3.385842 L 51.68493,63.75822 51.43912,60.167831 c -0.239367,-3.496256 -0.349724,-4.13894 -1.035267,-6.028998 -0.177369,-0.489011 -0.415934,-1.604652 -0.530148,-2.479203 -0.117589,-0.900403 -0.343041,-1.858928 -0.519784,-2.209894 -0.171669,-0.340891 -0.358562,-0.98273 -0.415319,-1.42631 -0.202846,-1.58532 -0.866486,-2.834819 -1.505639,-2.834819 -0.490269,0 -1.786106,0.930495 -2.115546,1.519101 -0.38797,0.693179 -0.811793,2.273073 -0.811793,3.026132 0,0.418165 0.147944,0.720208 0.619801,1.265397 0.420085,0.485371 0.6198,0.862874 0.6198,1.17155 0,0.477881 -0.465806,1.075227 -0.838452,1.075227 -0.56366,0 -1.322372,1.482004 -1.565994,3.058879 -0.08072,0.522463 -0.245712,0.78407 -0.805002,1.276376 -0.494368,0.43516 -0.801286,0.596319 -1.032527,0.54217 -0.814144,-0.190646 -1.033442,0.442922 -1.106256,3.196061 -0.03454,1.305827 -0.146352,2.560903 -0.254896,2.861077 -0.149789,0.414233 -0.153453,0.725071 -0.01626,1.379158 0.15403,0.734345 0.137706,0.956531 -0.125246,1.704675 -0.176775,0.502956 -0.367292,1.659887 -0.458688,2.785418 -0.08598,1.05883 -0.254095,2.202254 -0.373591,2.540943 -0.119496,0.338686 -0.176098,0.656963 -0.125783,0.707279 0.05032,0.05032 0.0033,0.09148 -0.104597,0.09148 -0.203746,0 -0.763102,-0.549639 -1.370227,-1.346427 -0.324843,-0.426319 -0.403959,-0.454102 -1.007176,-0.353677 -1.195616,0.199049 -1.245981,0.250751 -1.150014,1.180572 0.07931,0.768394 0.02828,0.939848 -0.7186,2.414747 -0.791236,1.562484 -0.828334,1.606057 -2.342625,2.75152 -1.358161,1.027361 -1.631715,1.318399 -2.33192,2.480972 -0.436295,0.724392 -0.916727,1.665714 -1.067629,2.091827 -0.202705,0.5724 -0.710234,2.681741 -0.864157,3.591523 -0.02686,0.158754 -0.528136,0.496725 -0.636973,0.42946 -0.345245,-0.213373 0.01252,-3.311908 0.526901,-4.563309 0.122605,-0.298279 0.272488,-0.953414 0.333074,-1.455856 0.06058,-0.502441 0.283114,-1.408899 0.494507,-2.014351 0.211393,-0.605453 0.4528,-1.65054 0.53646,-2.322417 0.161058,-1.293463 0.929147,-3.187168 1.814878,-4.474534 0.376055,-0.546577 0.464073,-0.854259 0.520485,-1.819449 0.0552,-0.944449 0.207446,-1.494783 0.814322,-2.943557 0.723374,-1.726886 1.694754,-4.549707 2.719368,-7.902458 0.273465,-0.894837 0.664249,-2.025809 0.868408,-2.513271 0.405046,-0.967114 0.468508,-1.809847 0.195304,-2.593557 -0.13339,-0.382644 -0.129527,-0.715853 0.01599,-1.378936 0.180635,-0.82314 0.293889,-0.975022 1.933031,-2.592347 0.957634,-0.944889 1.953962,-2.027285 2.214061,-2.405327 0.260099,-0.378041 0.654756,-0.78467 0.877015,-0.903619 0.499763,-0.267466 0.507776,-0.490951 0.03722,-1.038007 l -0.366887,-0.426531 -1.531253,0.299576 c -1.309576,0.256207 -1.683536,0.402824 -2.583181,1.012776 -0.978401,0.663348 -2.132274,1.857359 -2.944191,3.046606 -0.188365,0.275908 -0.732096,0.70976 -1.208292,0.964117 -0.738857,0.39466 -0.977506,0.449241 -1.627595,0.372248 l -0.761788,-0.09022 -0.774131,0.96534 c -0.425773,0.530936 -1.072856,1.337771 -1.437963,1.792966 -0.771424,0.96177 -1.286384,1.133861 -2.512647,0.839685 -1.043998,-0.250453 -1.756061,-0.09256 -2.46305,0.546166 -0.520693,0.470415 -2.650305,1.576508 -2.650305,1.376536 0,-0.188446 0.529285,-1.10153 0.831613,-1.434642 0.181783,-0.200292 0.813361,-0.688385 1.403507,-1.084651 1.77138,-1.189431 1.920877,-1.313545 2.413787,-2.003952 0.520489,-0.729032 1.106628,-1.141714 2.1689,-1.52705 1.677591,-0.608544 1.966669,-0.809598 2.402447,-1.670898 0.24954,-0.493206 0.677951,-1.020047 1.061119,-1.304919 0.353437,-0.262767 0.934914,-0.706935 1.29217,-0.987041 0.357256,-0.280105 1.047553,-0.788193 1.533994,-1.129083 0.530706,-0.371912 1.099441,-0.953736 1.422016,-1.454742 0.29567,-0.459218 0.902946,-1.232367 1.349501,-1.718109 0.446557,-0.485741 1.109725,-1.399978 1.473708,-2.031637 0.363982,-0.631657 0.861895,-1.44685 1.106471,-1.811537 0.244576,-0.364688 0.444685,-0.718803 0.444685,-0.786922 0,-0.06812 0.218055,-0.453059 0.484568,-0.85542 0.3549,-0.535799 0.729628,-0.855269 1.400347,-1.193847 0.597357,-0.301546 0.967849,-0.599241 1.065534,-0.856173 0.08237,-0.216639 0.254078,-0.498208 0.381581,-0.625712 0.355991,-0.35599 0.277852,-1.089434 -0.230751,-2.165891 -0.593863,-1.256917 -2.709208,-3.382091 -4.256945,-4.276728 -1.302248,-0.752737 -2.073896,-1.51428 -3.076377,-3.036084 -0.886613,-1.345913 -1.736451,-2.228775 -2.540597,-2.639328 -0.323121,-0.164968 -0.810612,-0.577791 -1.083317,-0.917384 -0.272703,-0.339593 -0.682809,-0.664374 -0.911345,-0.721731 -0.422311,-0.105994 -2.139143,-1.20361 -2.306711,-1.474742 -0.101401,-0.164069 2.311888,-0.05687 3.094081,0.13744 0.255667,0.06351 1.075873,0.08285 1.82268,0.04297 l 1.357829,-0.0725 0.559944,0.593714 c 0.307969,0.326541 0.928828,1.16553 1.379687,1.864419 0.450858,0.698888 0.947548,1.306014 1.103755,1.349171 0.156206,0.04316 0.662514,0.164217 1.125127,0.269027 0.75809,0.171752 1.002812,0.34641 2.479202,1.769396 0.900948,0.868359 1.794974,1.662742 1.986724,1.765296 0.451987,0.241736 0.755606,0.07753 1.572414,-0.850416 0.747192,-0.848852 0.818897,-1.441647 0.325726,-2.692829 -0.450254,-1.142303 -0.399235,-1.844691 0.223861,-3.081997 0.642084,-1.275008 1.761146,-2.222421 3.85029,-3.2597 0.749388,-0.372079 1.429232,-0.801152 1.510764,-0.953497 0.08153,-0.152344 0.14824,-0.560484 0.14824,-0.906978 0,-0.526384 0.05089,-0.629987 0.309454,-0.629987 0.170199,0 0.576827,0.241555 0.903615,0.53679 l 0.594161,0.536789 1.519858,-0.128237 c 0.981419,-0.08281 1.705788,-0.07117 2.044684,0.03284 0.486804,0.149405 0.566614,0.121794 1.101643,-0.381128 1.275492,-1.198947 4.607291,-3.107977 6.155023,-3.52666 0.814644,-0.220374 2.971914,-0.220078 3.108193,4.64e-4 0.192784,0.311932 -0.307273,0.580468 -1.70477,0.915481 -0.762123,0.182701 -1.577959,0.431614 -1.812969,0.553142 -0.23501,0.121528 -0.587882,0.22096 -0.784162,0.22096 -0.534927,0 -2.527374,1.017648 -2.88661,1.474344 -0.172884,0.219786 -0.362532,0.619051 -0.42144,0.887256 -0.09351,0.425769 -0.03747,0.551461 0.441687,0.990575 0.301834,0.27661 0.816691,0.575066 1.144126,0.663236 0.749272,0.201757 2.462534,1.30483 2.691702,1.733035 0.352097,0.657898 0.917905,3.345755 0.919685,4.368943 0.002,1.153714 0.383124,2.921533 0.753809,3.496571 0.204951,0.317936 0.320724,0.354077 0.886052,0.27659 1.598044,-0.219036 1.922538,-0.441424 4.554715,-3.121515 l 1.369621,-1.394551 1.124603,0 1.124604,0 0.686068,-1.361184 c 0.377336,-0.748651 0.861273,-1.475983 1.075414,-1.616293 0.21414,-0.140311 0.783252,-0.308101 1.264691,-0.372869 0.637972,-0.08582 0.938372,-0.208908 1.10777,-0.453889 0.497957,-0.72014 0.931783,-1.076695 1.310034,-1.076695 0.719777,0 0.379789,0.603644 -0.726979,1.290737 -0.233265,0.144813 -0.560299,0.523756 -0.726744,0.842093 -0.166442,0.318339 -1.038479,1.24121 -1.937859,2.050824 -1.436347,1.292991 -1.662827,1.566257 -1.862107,2.246778 -0.415469,1.418794 -1.647016,2.698796 -4.134564,4.297235 -0.627724,0.40336 -1.455089,0.948624 -1.838591,1.211696 -0.383501,0.263072 -1.045735,0.700054 -1.471631,0.97107 -0.740453,0.471182 -0.793579,0.552572 -1.213435,1.859013 -0.241493,0.75144 -0.404375,1.456689 -0.36196,1.56722 0.04241,0.110529 0.658186,0.530672 1.368383,0.93365 1.915988,1.087165 3.369193,2.654191 4.317003,4.655131 0.406017,0.857151 1.058244,1.923963 1.459704,2.387558 0.399155,0.460932 0.922716,1.227935 1.16347,1.704452 0.240755,0.476517 0.592932,1.00585 0.782614,1.176295 0.189684,0.170445 0.560289,0.623674 0.823568,1.007176 0.263278,0.383501 0.935163,1.185368 1.493078,1.781926 0.557914,0.596558 1.293143,1.456942 1.633841,1.911964 0.728954,0.973561 1.074553,1.178866 2.384223,1.416353 1.394145,0.252808 1.632367,0.369116 2.71509,1.325603 1.014137,0.895896 1.841027,2.086412 1.449147,2.086412 -0.116242,0 -0.281537,-0.07019 -0.367322,-0.155973 -0.08578,-0.08578 -1.001416,-0.254729 -2.034737,-0.375433 -2.119447,-0.247577 -2.958768,-0.553177 -4.066516,-1.480636 -0.805078,-0.67405 -0.985452,-0.711721 -2.136055,-0.446131 -0.734422,0.169525 -0.795951,0.156384 -1.677535,-0.358283 -0.632601,-0.369311 -1.154351,-0.850167 -1.6899,-1.557446 -1.335189,-1.763333 -3.10099,-4.350391 -3.697884,-5.417737 -0.31538,-0.563952 -0.658289,-1.095231 -0.76202,-1.18062 -0.166155,-0.136774 -0.9477,-0.244516 -1.449695,-0.199851 -0.306955,0.02731 -0.380671,1.002268 -0.136614,1.806822 0.127726,0.421055 0.234514,1.009601 0.237308,1.30788 0.01119,1.194957 0.798684,2.229936 2.305878,3.030554 1.571243,0.83464 2.377204,1.515835 2.830944,2.392701 0.418547,0.808853 0.441769,0.960096 0.456304,2.971732 0.0084,1.165729 -0.03349,2.198473 -0.09314,2.294988 -0.102683,0.166146 0.13943,1.352312 0.885893,4.34019 0.180974,0.724392 0.669913,2.223534 1.086527,3.331428 0.859416,2.285417 1.197471,3.568051 1.200788,4.555962 0.0015,0.440151 0.245557,1.292315 0.687909,2.401727 0.60731,1.523123 0.690252,1.8788 0.726183,3.114071 0.02974,1.022382 -0.03546,1.628304 -0.244314,2.270444 l -0.284881,0.875891 0.468628,0.906036 c 0.613054,1.185269 0.930836,2.329044 1.065503,3.835028 0.119152,1.332455 -0.08304,1.529405 -0.418989,0.40812 -0.09905,-0.330606 -0.491429,-0.972659 -0.871946,-1.426784 -0.829848,-0.990368 -1.217965,-1.798914 -1.363271,-2.840031 -0.09728,-0.697016 -0.208105,-0.868707 -1.104516,-1.711163 -0.786791,-0.739431 -1.113467,-1.195757 -1.552982,-2.169302 -0.759446,-1.68221 -1.357651,-3.934301 -1.140355,-4.293156 0.166074,-0.274268 0.163602,-0.275994 -0.47696,-0.333143 -0.249546,-0.0223 -1.065924,1.574518 -1.065924,2.084889 0,0.74657 -0.596096,1.860787 -1.455024,2.719714 -0.481114,0.481114 -0.867518,1.02068 -0.920438,1.285276 -0.05017,0.250827 -0.276153,0.583454 -0.502198,0.739171 -0.815312,0.561654 -1.761115,1.48067 -1.860883,1.808178 -0.05602,0.183891 -0.579374,1.310533 -1.163014,2.503649 -0.679421,1.388921 -1.205754,2.726717 -1.4631,3.718804 -0.221067,0.852226 -0.917537,3.048644 -1.547712,4.88093 -0.630174,1.832285 -1.225347,3.642982 -1.322606,4.023768 -0.378649,1.482486 -2.225473,4.63063 -3.148627,5.367232 -1.396086,1.11396 -2.581987,1.40299 -3.632512,0.885297 z m 1.188077,-15.094911 c 0.535717,-0.18675 0.620777,-0.365574 0.242874,-0.510588 -0.373652,-0.143385 -0.824822,-0.112841 -1.185643,0.08026 -0.325235,0.17406 -0.325162,0.174628 0.04892,0.381884 0.206052,0.114163 0.381668,0.210038 0.390257,0.213057 0.0086,0.003 0.235202,-0.07106 0.503588,-0.164618 z m 1.451133,-10.552708 c 0.564601,-0.527416 0.546439,-1.168496 -0.04242,-1.49745 -0.534085,-0.298354 -1.461615,-0.11392 -1.886901,0.375201 -0.181127,0.208315 -0.450502,0.378755 -0.598608,0.378755 -0.4964,0 -0.75948,0.185399 -0.75948,0.535224 0,0.497877 0.529279,0.696122 1.765854,0.661413 0.927767,-0.02604 1.128268,-0.08575 1.521559,-0.453143 z m 10.007257,-0.652185 c 0.536871,-0.280475 1.158434,-0.951766 1.519261,-1.64081 0.233729,-0.446333 0.30283,-1.077149 0.390394,-3.563854 0.129275,-3.671181 -0.07761,-4.811464 -0.750812,-4.13826 -0.17543,0.17543 -0.23115,0.539878 -0.214448,1.402629 0.02229,1.151514 0.01626,1.170425 -0.498755,1.563247 -0.661348,0.504436 -0.752841,0.49885 -1.086703,-0.06633 -0.350643,-0.593594 -0.90926,-0.736779 -1.596279,-0.409162 -0.847878,0.404324 -1.013202,0.32653 -1.693968,-0.797119 -0.546086,-0.90135 -0.702253,-1.051799 -1.161378,-1.118856 -0.491675,-0.07181 -0.543582,-0.134113 -0.710015,-0.852226 -0.09876,-0.426113 -0.186255,-1.074711 -0.194435,-1.441328 -0.0085,-0.381169 -0.161808,-0.921879 -0.35804,-1.26284 -0.322419,-0.560215 -0.330532,-0.646383 -0.134201,-1.425251 0.314493,-1.247627 0.712301,-1.934664 1.223369,-2.112822 0.33922,-0.118252 0.584267,-0.425613 1.014483,-1.272453 0.725582,-1.428239 0.771441,-2.549132 0.153749,-3.75793 -0.29627,-0.579789 -0.715896,-0.536665 -1.265457,0.130049 -0.25214,0.30589 -0.495948,0.495468 -0.541794,0.421286 -0.08256,-0.133583 0.156541,-1.627611 0.53347,-3.333409 0.170323,-0.770799 0.160655,-0.99391 -0.07553,-1.743189 -0.31903,-1.01208 -0.635246,-1.111234 -1.242468,-0.389593 -0.475184,0.564727 -0.712601,1.351883 -0.722941,2.396916 -0.0042,0.426113 -0.108899,1.053662 -0.232631,1.394552 -0.385747,1.062764 -0.807195,3.045849 -0.922047,4.338604 -0.06057,0.681781 -0.280694,1.762558 -0.48916,2.401727 -0.298541,0.915339 -0.397863,1.622796 -0.467708,3.331429 l -0.08868,2.169302 0.923263,1.757734 c 0.959505,1.826728 0.923844,1.788213 3.104937,3.353413 0.192509,0.138149 0.457395,0.508933 0.588636,0.823969 0.142549,0.342176 0.959758,1.274624 2.029752,2.315979 1.888144,1.837607 2.129513,1.961669 2.966135,1.524598 z m -27.432246,-6.31799 c 0.108721,-0.226836 0.268346,-1.306761 0.354721,-2.399832 0.08638,-1.093071 0.318328,-2.599703 0.515448,-3.348072 0.197118,-0.748369 0.341935,-1.585099 0.321813,-1.859402 -0.189884,-2.588527 -0.369491,-3.141369 -0.981505,-3.021149 -0.428419,0.08415 -0.863823,2.132092 -1.244566,5.853846 -0.16316,1.594886 -0.0612,4.5539 0.172509,5.00649 0.197504,0.382476 0.621866,0.268267 0.86158,-0.231881 z m 27.123271,-4.111488 c 0.05243,-0.721007 -0.171917,-1.282922 -0.512208,-1.282922 -0.332319,0 -0.585809,0.59607 -0.479513,1.127551 0.217832,1.089158 0.91587,1.198519 0.991721,0.155371 z m -2.4721,-0.624652 c 0.162455,-0.761693 0.119747,-0.987762 -0.301756,-1.597365 -0.150889,-0.218223 -0.29643,-0.706316 -0.323424,-1.084651 -0.06763,-0.947829 -0.541529,-1.025885 -1.306165,-0.215136 -0.691528,0.733235 -0.685075,1.388101 0.01748,1.774058 0.387761,0.213019 0.494708,0.40473 0.644892,1.156007 0.09902,0.495351 0.27175,0.957316 0.383838,1.02659 0.320272,0.197939 0.718651,-0.278918 0.885132,-1.059503 z m 1.958034,-3.90637 c 0.102377,-0.322563 -0.146952,-0.935554 -0.380528,-0.935554 -0.236595,0 -0.340988,0.591409 -0.163073,0.923849 0.213299,0.39855 0.419413,0.402988 0.543601,0.0117 l 0,7e-6 z M 55.159863,32.638652 c 1.615249,-0.984829 1.43835,-3.25479 -0.253647,-3.25479 -1.518948,0 -2.255823,1.873435 -1.243215,3.160758 0.379298,0.4822 0.815295,0.509589 1.496862,0.09403 z M 78.22386,84.765867 c -0.05173,-0.134804 -0.09405,-0.352524 -0.09405,-0.483823 0,-0.194631 0.04293,-0.203096 0.232425,-0.04583 0.251326,0.208581 0.320057,0.774751 0.09405,0.774751 -0.0761,0 -0.180696,-0.110294 -0.232425,-0.245099 z M 45.125425,67.346649 c 0,-0.302028 0.164351,-0.403801 0.350874,-0.217276 0.124133,0.124132 -0.03833,0.527176 -0.212502,0.527176 -0.0761,0 -0.138372,-0.139455 -0.138372,-0.3099 z m 1.735442,-3.439894 c -0.102268,-0.102267 -0.185941,-0.274133 -0.185941,-0.381924 0,-0.302179 -0.529846,-0.516787 -1.2759,-0.516787 -0.782096,0 -1.048352,-0.201773 -1.048352,-0.79446 0,-0.296294 0.165767,-0.559218 0.554695,-0.879805 0.784581,-0.646719 1.304436,-2.126935 1.305522,-3.717301 9.3e-4,-1.259759 -0.008,-1.236897 1.073609,-2.765888 0.66023,-0.933305 0.803996,-1.031835 1.089345,-0.746576 0.354911,0.354803 0.264015,1.697844 -0.214606,3.170875 -0.639836,1.969199 -0.684231,2.865501 -0.194873,3.934398 l 0.399421,0.87245 -0.495793,1.001246 c -0.503544,1.016901 -0.674316,1.156583 -1.007127,0.823772 z M 46.192924,49.411169 c -0.05353,-0.846302 0.21603,-1.675145 0.489776,-1.505959 0.196582,0.121493 0.187806,1.101776 -0.01323,1.477408 -0.199856,0.373434 -0.453774,0.388647 -0.47655,0.02855 l 7e-6,0 z m 1.644128,-35.478034 c -1.445091,-0.347529 -3.976572,-1.32459 -4.071268,-1.571364 -0.427481,-1.113994 4.339366,-0.451492 5.656821,0.786194 0.44823,0.421089 0.449392,0.833407 0.0027,0.953119 -0.420378,0.112658 -0.422239,0.112461 -1.588239,-0.167949 l 6e-6,0 z"
       id="path2822" />
    <path
       sodipodi:nodetypes="cssssscccssssssssssssssssscccssssssssssssccsscccssccsssccsssccsscccssssssssssssccscccsssssssssccssssccsssssssssssssssssssssssssssssssssssssssssssssssssssssscccsssssssssssssssssssssssssssssssssssssssssssssssssssssssssssssssscccccsssccssssccssccsssssccssssccssssssscccsssccsscc"
       style="fill:#5e473b"
       d="M 53.068174,99.605347 C 52.405936,99.252031 51.532502,98.417999 51.103219,97.729031 50.588481,96.902914 49.421221,94.041635 48.632994,91.673822 48.250001,90.523317 47.762001,89.159037 47.548552,88.642089 47.335102,88.12514 47.04572,87.08985 46.905481,86.341442 46.765244,85.593036 46.538937,84.69117 46.40258,84.337297 46.21403,83.847978 46.151148,83.081591 46.140012,81.137212 L 46.125372,78.580534 45.55336,77.39844 c -0.628449,-1.298716 -0.6266,-1.456673 0.03245,-2.773546 0.409437,-0.81811 1.624409,-2.426649 2.154015,-2.851768 0.205213,-0.164725 0.598002,-0.792274 0.872867,-1.394551 0.274863,-0.602277 0.835082,-1.467477 1.244931,-1.922665 0.409849,-0.455189 1.099892,-1.501103 1.533429,-2.324252 0.780855,-1.4826 0.793316,-1.49627 1.328751,-1.457461 0.297278,0.02155 0.937188,-0.03937 1.422023,-0.135382 1.515736,-0.300144 1.892335,-0.06467 2.849435,1.781684 0.725277,1.399135 1.007452,1.704672 2.181245,2.361843 0.750121,0.419971 1.020151,0.675169 1.264546,1.195098 0.181625,0.386391 0.741836,1.039567 1.348186,1.571914 0.570588,0.500947 1.455967,1.397101 1.967509,1.991451 1.189221,1.381734 1.291649,0.442437 -1.027554,9.42301 -0.564362,2.18536 -1.412505,5.113918 -1.884762,6.507906 -0.472257,1.393989 -0.993996,3.022619 -1.159421,3.619177 -0.400368,1.443817 -0.784663,2.318089 -1.700496,3.868625 -0.902177,1.527418 -1.468645,2.130119 -2.487149,2.646234 -0.875351,0.443574 -1.715756,0.478085 -2.42519,0.09959 l -2e-6,0 z m 3.091707,-12.726072 c 0.751483,-0.34074 1.205836,-0.687124 1.798201,-1.370901 0.849954,-0.981115 1.054903,-1.392114 1.276834,-2.560523 0.107771,-0.567394 0.08655,-0.878034 -0.08861,-1.297263 -0.126675,-0.303172 -0.230317,-0.673624 -0.230317,-0.823227 0,-0.558378 -0.351145,-0.61683 -4.294505,-0.714872 -4.289501,-0.106647 -4.555468,-0.05433 -3.634093,0.714869 0.270044,0.225443 0.490991,0.482496 0.490991,0.571228 0,0.08873 -0.274276,0.351403 -0.609501,0.583713 -0.956091,0.662573 -1.20843,1.880333 -0.646164,3.118321 0.280781,0.618215 0.971477,1.303952 1.315299,1.305851 0.09504,4.65e-4 0.381974,0.116173 0.637642,0.256996 0.500117,0.275466 1.915173,0.637623 2.573982,0.658764 0.222575,0.0071 0.857183,-0.192187 1.410242,-0.442956 z m 0.431505,-10.982829 c 1.527517,-0.889352 1.932093,-1.776758 1.532867,-3.362228 -0.146376,-0.581309 -0.267307,-0.72799 -0.813488,-0.986696 -0.569759,-0.269875 -0.932333,-0.299704 -3.239947,-0.266565 l -2.598392,0.03732 -0.623367,0.608703 c -0.80201,0.783142 -0.867163,1.094203 -0.458642,2.18968 0.673702,1.80657 1.340167,2.126789 4.884243,2.346751 0.170445,0.01058 0.762971,-0.244553 1.316726,-0.566961 z m -3.098653,-6.537818 c 0.2066,-0.135625 0.2066,-0.169531 0,-0.305156 -0.265992,-0.174613 -0.828955,-0.206418 -0.980007,-0.05537 -0.150316,0.150315 0.203259,0.518221 0.495391,0.515472 0.138705,-0.0012 0.356782,-0.07103 0.484616,-0.15495 z m 2.866578,-0.152578 c 0.05431,-0.08788 -0.07587,-0.15495 -0.300755,-0.15495 -0.218087,0 -0.396521,0.06973 -0.396521,0.15495 0,0.08522 0.13534,0.15495 0.300755,0.15495 0.165416,0 0.34385,-0.06973 0.396521,-0.15495 z m -26.871618,9.852247 c -0.0067,-0.163342 0.02989,-0.254861 0.08138,-0.203372 0.05149,0.05149 0.05699,0.185134 0.01223,0.296988 -0.04946,0.123608 -0.08618,0.08689 -0.09361,-0.09362 l 6e-6,0 z m 0.673746,-1.658165 c -0.260038,-0.420753 -0.354798,-1.333434 -0.199197,-1.918601 0.22383,-0.841754 1.286105,-2.945173 1.841567,-3.6465 0.423077,-0.534179 0.44729,-0.637568 0.36575,-1.561777 -0.08362,-0.94779 -0.04848,-1.081651 0.829241,-3.159031 0.504108,-1.193116 1.318726,-3.389534 1.810261,-4.880929 0.491536,-1.491396 0.996816,-2.816219 1.122846,-2.944053 0.202365,-0.205263 0.221272,-0.02418 0.161776,1.549501 -0.161841,4.28072 -0.438274,8.49262 -0.594921,9.064584 -0.104647,0.382096 -0.405061,0.83743 -0.783314,1.187254 -0.595485,0.550732 -0.608699,0.584979 -0.448438,1.162127 0.266229,0.958772 0.196273,1.573376 -0.29664,2.606184 -0.506196,1.060638 -0.988454,1.503684 -2.439264,2.240932 -1.019898,0.518274 -1.209292,0.559801 -1.369667,0.300309 z m 44.314516,-1.823484 c -0.676779,-0.412701 -1.614453,-2.607429 -1.614453,-3.778807 0,-0.69775 0.08329,-0.955819 0.489428,-1.516478 l 0.489429,-0.675636 -0.446218,-0.316052 c -0.849412,-0.601629 -1.282934,-1.121947 -1.437125,-1.724854 -0.213914,-0.836427 -0.394695,-6.868314 -0.219692,-7.330098 0.140412,-0.370498 0.141846,-0.369943 0.487024,0.188565 0.190409,0.308089 0.472528,0.998264 0.626933,1.533722 0.154405,0.535458 0.603725,1.727073 0.998488,2.648034 1.148701,2.679865 1.398323,3.574224 1.207457,4.326173 -0.135458,0.53366 -0.113651,0.729824 0.135394,1.217993 0.473126,0.927403 0.961837,3.348887 0.868325,4.302397 -0.08404,0.856884 -0.424684,1.417741 -0.860469,1.41672 -0.13593,-3.1e-4 -0.461966,-0.131574 -0.724521,-0.291679 z M 62.324891,65.487247 c -0.431426,-0.431426 -0.38722,-0.705127 0.149812,-0.927574 0.252843,-0.104731 0.540292,-0.287508 0.638775,-0.406174 0.310167,-0.373727 0.718556,-0.250301 0.900706,0.272218 0.239573,0.687238 0.21138,1.167488 -0.07499,1.277377 -0.513359,0.196994 -1.307668,0.09079 -1.614304,-0.215847 z m 5.454993,-3.532665 c -0.422153,-0.790666 -0.711939,-0.939536 -1.116388,-0.573514 -0.390152,0.353082 -0.67091,0.227747 -1.166132,-0.520586 -0.38778,-0.585975 -0.395022,-0.634397 -0.162211,-1.084605 0.13403,-0.259185 0.243247,-0.736188 0.242703,-1.060005 -0.0011,-0.676788 -0.849015,-4.024828 -1.094041,-4.320067 -0.102949,-0.124045 -0.358197,-0.165769 -0.687343,-0.112356 -0.467872,0.07593 -0.557466,0.02939 -0.842052,-0.437412 -0.175159,-0.287307 -0.318731,-0.757123 -0.319049,-1.044037 -4.65e-4,-0.470376 0.0337,-0.510843 0.348059,-0.411627 0.979636,0.309183 1.189651,0.285676 1.355968,-0.151773 0.12362,-0.325143 0.08819,-0.694109 -0.15415,-1.605429 -0.173061,-0.650796 -0.374845,-1.497039 -0.448409,-1.88054 -0.319135,-1.663728 -0.849525,-3.358122 -1.155195,-3.690419 -0.323909,-0.352126 -0.507395,-0.366624 -1.546094,-0.12217 -0.100478,0.02365 -0.144519,0.01846 -0.09787,-0.01153 0.12958,-0.08331 -0.02289,-1.125607 -0.178749,-1.221933 -0.07545,-0.04663 -0.215536,0.08721 -0.311314,0.297422 -0.139317,0.305768 -0.123955,0.453849 0.07682,0.740491 0.138026,0.197061 0.250957,0.396392 0.250957,0.442959 0,0.04657 -0.477913,0.575054 -1.062027,1.174412 -1.214209,1.245897 -1.671944,2.229828 -1.873516,4.027235 -0.0677,0.603666 -0.206367,1.253184 -0.308154,1.443373 -0.405825,0.758291 -0.627215,1.868394 -0.637312,3.195643 -0.0065,0.857176 -0.120723,1.782656 -0.296366,2.401727 -0.726941,2.562172 -1.08059,3.619087 -1.271495,3.79999 -0.113746,0.107786 -0.742011,0.243668 -1.396147,0.30196 -1.132914,0.100957 -1.200044,0.08887 -1.415036,-0.254793 -0.276802,-0.442468 -0.643624,-2.003983 -0.972094,-4.13807 -0.136124,-0.884395 -0.350781,-1.895444 -0.477017,-2.246777 -0.126236,-0.351334 -0.327738,-1.510383 -0.447783,-2.575665 -0.179796,-1.595542 -0.300978,-2.094728 -0.687641,-2.832591 -0.281659,-0.537489 -0.527142,-1.312109 -0.61381,-1.936877 -0.188487,-1.35877 -1.516139,-4.02553 -2.366485,-4.753395 -0.404394,-0.346149 -0.585481,-0.62835 -0.585481,-0.912402 0,-0.707532 -0.410999,-0.467948 -0.690029,0.40224 -0.143466,0.447418 -0.489526,1.162513 -0.76902,1.5891 -0.279495,0.426586 -0.625158,1.001838 -0.768141,1.278339 -0.274181,0.530205 -0.624911,0.655944 -0.770607,0.276267 -0.113239,-0.295095 0.121487,-1.682384 0.430335,-2.543388 0.3547,-0.988826 0.317865,-1.667922 -0.105428,-1.943717 -0.511475,-0.333253 -3.073284,-0.400049 -3.447472,-0.08989 -0.154225,0.127834 -0.801398,0.886811 -1.438162,1.686615 -0.636765,0.799803 -1.645623,1.950308 -2.241909,2.556678 -0.596285,0.606368 -1.674362,1.89165 -2.395724,2.856183 -1.537498,2.055783 -1.938007,2.351096 -3.189688,2.351904 -1.00857,6.19e-4 -0.810953,-0.149372 -2.724715,2.068482 -1.236399,1.432859 -1.695287,1.677433 -2.453555,1.307666 -0.356154,-0.173678 -0.429018,-0.305695 -0.416695,-0.754976 0.02917,-1.063203 0.607073,-1.508962 3.674532,-2.834282 0.474358,-0.204949 0.663395,-0.420028 0.961369,-1.093797 0.318998,-0.721312 0.505204,-0.917395 1.330528,-1.401103 2.436284,-1.427867 5.297386,-4.33037 7.211609,-7.315962 2.260397,-3.525516 2.238614,-3.505888 4.083968,-3.679834 1.924844,-0.181437 2.805907,-0.735362 2.697081,-1.695658 -0.02041,-0.180069 -0.04291,-0.762393 -0.05002,-1.294055 l -0.01291,-0.96666 -1.433289,-1.376622 c -2.214799,-2.127236 -3.97066,-3.540182 -5.074618,-4.083553 -1.672496,-0.823212 -1.953647,-1.10224 -4.025727,-3.995343 -0.335706,-0.468724 -1.048963,-1.170193 -1.585015,-1.55882 -1.41154,-1.023339 -1.399983,-1.868498 0.02606,-1.90589 0.838653,-0.02199 1.322962,0.371545 2.270988,1.84534 1.221176,1.898433 1.594475,2.23917 2.453167,2.23917 0.393541,0 0.939903,0.09402 1.21414,0.208926 0.47921,0.200797 2.051689,1.75867 2.781992,2.756154 0.532807,0.727734 2.31139,2.148275 2.689741,2.148275 0.184092,0 0.408602,-0.08903 0.49891,-0.197846 0.180791,-0.21784 0.958399,-2.513019 0.958399,-2.8288 0,-0.108892 0.244047,-0.490091 0.542326,-0.847107 0.298279,-0.357016 0.542003,-0.729684 0.541608,-0.828149 -4.65e-4,-0.09847 -0.173059,-0.597393 -0.383698,-1.108728 -0.210638,-0.511336 -0.384635,-1.158634 -0.386657,-1.43844 -0.0048,-0.663357 0.625018,-1.891554 1.333061,-2.599597 1.147166,-1.147167 3.740528,-2.55459 4.661429,-2.529769 0.322967,0.0087 0.846452,-0.09628 1.163299,-0.233299 0.858562,-0.371282 1.937077,-0.313975 2.677867,0.142291 0.340891,0.209959 0.828746,0.382102 1.084123,0.382539 0.76433,0.0012 2.811233,0.761814 3.765457,1.399022 1.147526,0.766287 1.600195,1.547766 1.69936,2.933735 0.07928,1.108082 -0.10548,1.680716 -0.722445,2.239062 -0.409918,0.370969 -0.417236,0.890721 -0.01763,1.252355 0.519058,0.469741 1.231565,1.694315 1.571493,2.7009 0.385921,1.14277 0.827104,1.51993 1.502524,1.284477 1.15451,-0.402465 4.463466,-2.905828 5.280631,-3.995021 1.113829,-1.484608 1.487621,-1.82001 2.011726,-1.805109 0.884133,0.02514 1.327439,0.617312 1.094278,1.461752 -0.232603,0.842416 -1.704704,2.136587 -3.397262,2.986641 -0.795199,0.399373 -1.696709,0.891487 -2.003353,1.093588 -0.306645,0.2021 -1.185084,0.619711 -1.952087,0.928026 -1.919913,0.771751 -2.129964,0.986575 -2.484076,2.540524 -0.108192,0.474778 -0.313459,1.175714 -0.456151,1.557638 -0.236893,0.634056 -0.238408,0.738513 -0.01742,1.201924 0.359534,0.75395 1.07423,1.123273 2.182897,1.128021 1.271786,0.0055 2.063911,0.402054 3.328277,1.666419 0.75339,0.75339 1.206679,1.378672 1.601208,2.208762 0.590439,1.242288 2.790956,4.475642 4.057624,5.962118 0.426113,0.500056 1.370664,1.541179 2.099003,2.313605 0.728338,0.772427 1.583313,1.730911 1.899942,2.129967 0.663201,0.835843 1.825924,1.366271 2.994931,1.366271 0.590853,0 0.780501,0.07893 1.156314,0.481238 0.537942,0.575868 0.552402,0.69241 0.114962,0.926521 -0.745558,0.399011 -3.132842,-0.36538 -3.926548,-1.257251 -0.402816,-0.452637 -1.167495,-0.770309 -1.854239,-0.770309 -0.318971,0 -0.989566,-0.225485 -1.608166,-0.54074 -0.919489,-0.468597 -1.155494,-0.682772 -1.768958,-1.605338 -0.389351,-0.58553 -0.931136,-1.510133 -1.203966,-2.054676 -0.27283,-0.544541 -0.732775,-1.281692 -1.022098,-1.638113 -0.592678,-0.730123 -1.251016,-2.132476 -1.680286,-3.579235 -0.249297,-0.840213 -0.846145,-1.742325 -1.148863,-1.736469 -0.0523,0.0011 -0.478586,0.104776 -0.94731,0.230586 -0.468724,0.12581 -1.251552,0.229574 -1.739618,0.230586 -0.779188,0.0016 -0.918959,0.05002 -1.146299,0.396984 -0.278382,0.424865 -0.306605,0.180025 0.416291,3.611494 0.317345,1.506394 1.121705,4.200409 1.38185,4.62818 0.194086,0.319151 0.557078,0.560726 1.208746,0.804433 1.07031,0.400269 3.270086,1.875642 3.551513,2.381973 0.241452,0.434413 0.252297,1.474514 0.02479,2.378016 -0.155391,0.617117 -0.215563,0.687418 -0.503588,0.58838 -0.179911,-0.06186 -0.75721,-0.142887 -1.282888,-0.180053 -0.829581,-0.05865 -1.000706,-0.02265 -1.296057,0.272704 -0.37107,0.37107 -0.371141,0.150463 0.0011,3.481321 0.09524,0.852226 0.152526,2.142186 0.127296,2.866578 l -0.04587,1.317076 -0.355639,-0.666087 2.1e-5,0 z M 54.721252,54.878893 c 0.421093,-0.217756 0.723018,-0.662522 0.560242,-0.825297 -0.132944,-0.132944 -1.638475,-0.331045 -1.862514,-0.245072 -0.345524,0.132589 -0.414947,0.540308 -0.158615,0.93152 0.277685,0.423801 0.8117,0.474556 1.460887,0.138849 z m -0.249894,-9.863999 c 0.553826,-0.284534 1.190677,-0.949036 1.190677,-1.242375 0,-0.183337 -0.191735,-0.328482 -0.581063,-0.43987 -0.850229,-0.24325 -2.40771,-0.352572 -2.650715,-0.186058 -0.293584,0.201174 -0.09491,1.002263 0.392101,1.581047 0.41919,0.498178 1.031006,0.604756 1.649,0.287256 z M 55.971935,40.5213 c 0,-0.186806 -0.424321,-0.17196 -0.542325,0.01897 -0.16748,0.270986 0.08088,0.499973 0.323695,0.298451 0.120246,-0.0998 0.21863,-0.242637 0.21863,-0.317424 z M 55.82863,33.482977 c 0.646746,-0.332756 1.511431,-1.39896 1.624849,-2.003523 0.140769,-0.750363 0.01424,-1.288096 -0.515124,-2.189075 -0.361525,-0.615324 -0.584134,-0.808463 -1.191931,-1.034133 -0.696665,-0.258666 -0.797995,-0.260685 -1.49331,-0.02974 -1.872021,0.621786 -2.559055,2.861733 -1.435942,4.681617 0.689362,1.117038 1.61445,1.293627 3.011458,0.574852 z M 41.598499,56.165185 c -0.358153,-0.358153 -0.208045,-0.735151 0.420358,-1.055739 0.447183,-0.228136 0.695472,-0.500509 0.920988,-1.010326 0.310619,-0.702207 0.645454,-0.930815 0.625159,-0.426822 -0.006,0.149139 -0.267486,0.794119 -0.581063,1.433289 -0.580885,1.184019 -0.966272,1.478768 -1.385442,1.059598 z m -4.205263,-1.927544 c -0.4271,-0.542968 -0.561044,-1.351824 -0.320161,-1.933367 0.259426,-0.626313 1.85763,-1.963999 3.518651,-2.94509 1.742961,-1.029488 1.979239,-1.116363 2.226373,-0.818584 0.158042,0.190429 0.156571,0.375887 -0.0076,0.96004 -0.111922,0.398209 -0.294751,1.224286 -0.406285,1.835724 -0.31894,1.74845 -0.932842,2.657246 -1.670014,2.472226 -0.255505,-0.06413 -0.651617,0.05347 -1.242917,0.369011 -1.0902,0.581763 -1.674494,0.598484 -2.098035,0.06004 l -4e-6,0 z m 6.492588,-1.53478 c 0,-0.04754 0.103599,-0.334379 0.23022,-0.637426 0.246481,-0.58991 0.590076,-0.638295 0.670348,-0.0944 0.03463,0.234653 -0.08622,0.397141 -0.426113,0.572906 -0.260951,0.134941 -0.474455,0.206456 -0.474455,0.158918 z m 17.5216,-2.155392 c -0.0067,-0.163342 0.02989,-0.25486 0.08138,-0.203372 0.05149,0.05149 0.05699,0.185133 0.01223,0.296988 -0.04946,0.123609 -0.08618,0.08689 -0.09361,-0.09362 l 6e-6,0 z"
       id="path2820" />
  </g>
</svg>
